<ttFont>
<head>
    <!-- Most of this table will be recalculated by the compiler -->
    <tableVersion value="1.0"/>
    <fontRevision value="2.0359954834"/>
    <checkSumAdjustment value="0xd37b6dc4"/>
    <magicNumber value="0x5f0f3cf5"/>
    <flags value="00000000 00000011"/>
    <unitsPerEm value="1000"/>
    <created value="Wed Jun 13 16:04:30 2007"/>
    <modified value="Wed Jun 13 16:04:30 2007"/>
    <xMin value="-184"/>
    <yMin value="-280"/>
    <xMax value="1328"/>
    <yMax value="882"/>
    <macStyle value="00000000 00000000"/>
    <lowestRecPPEM value="3"/>
    <fontDirectionHint value="2"/>
    <indexToLocFormat value="0"/>
    <glyphDataFormat value="0"/>
  </head>
          <CharString index="0">
            rmoveto
            -30 -9 -66 -18 -25 -16 rrcurveto
            -12 -8 -16 -18 -15 vvcurveto
            -8 7 -1 7 10 13 4 4 10 vhcurveto
            26 10 41 7 28 4 37 5 12 1 36 -2 41 -3 -3 3 -3 41 rrcurveto
            21 -2 4 22 -25 hhcurveto
            -11 -10 -3 -3 -10 hvcurveto
            -59 -18 rlineto
            endchar
          </CharString>
          <CharString index="1">
            rmoveto
            4 10 29 13 11 hhcurveto
            30 37 -52 -15 28 hvcurveto
            5 6 7 4 8 5 rrcurveto
            10 7 11 7 14 vvcurveto
            14 -26 21 -8 8 vhcurveto
            15 -14 -21 26 -22 hhcurveto
            -24 -35 -14 -9 -23 hvcurveto
            -81 -32 rlineto
            -48 -19 -15 -21 -18 vvcurveto
            -5 1 -9 8 7 20 10 3 7 vhcurveto
            88 37 rlineto
            endchar
          </CharString>
          <CharString index="2">
            rmoveto
            -103 callsubr
            190 hmoveto
            -103 callsubr
            endchar
          </CharString>
          <CharString index="3">
            553 550 rmoveto
            14 8 14 8 16 6 rrcurveto
            -54 callsubr
            -48 79 -1 229 -2 238 269 -5 199 -1 36 -10 27 -20 16 -2 callsubr
            -261 -200 rmoveto
            71 47 121 83 88 hhcurveto
            26 14 -25 -24 -1 hvcurveto
            -3 -73 -76 -62 callsubr
            22 callsubr
            return
          </CharString>
          <CharString index="4">
            38 21 53 27 3 hvcurveto
            3 28 -32 4 -22 3 -51 8 -22 -67 -1 -17 rrcurveto
            -28 -2 42 -11 23 hhcurveto
            return
          </CharString>
          <CharString index="5">
            rmoveto
            3 -10 -10 3 -11 hhcurveto
            -25 4 -22 -21 -2 hvcurveto
            -3 -41 -3 -3 41 3 36 2 12 -1 37 -5 28 -4 41 -7 26 -10 rrcurveto
            -4 10 13 -4 10 hhcurveto
            7 7 1 8 15 -16 18 -12 8 hvcurveto
            -25 16 -66 18 -30 9 -59 18 rcurveline
            endchar
          </CharString>
          <CharString index="6">
            vstem
            398 192 rmoveto
            -31 -23 -28 -38 -44 8 rrcurveto
            19 39 20 35 44 vvcurveto
            30 -6 21 -30 8 vhcurveto
            11 6 12 6 15 vvcurveto
            27 -33 10 -22 -1 vhcurveto
            -19 callsubr
            rrcurveto
            -91 4 48 -52 52 hhcurveto
            63 49 32 43 42 hvcurveto
            2 callsubr
            rlineto
            -184 78 -73 callsubr
            return
          </CharString>
          <CharString index="7">
            hintmask 10101110
            hintmask 11001110
            -58 callsubr
            hintmask 10011110
            -72 callsubr
            hintmask 11001110
            -20 callsubr
            hintmask 10101110
            -91 callsubr
            hintmask 11001110
            -82 callsubr
            return
          </CharString>
          <CharString index="8">
            hstem
            35 101 451 88 vstem
            -104 callsubr
            return
          </CharString>
          <CharString index="9">
            75 callsubr
            -101 callsubr
            return
          </CharString>
          <CharString index="10">
            vstem
            598 332 rmoveto
            53 callsubr
            -71 -88 -245 -334 -100 vvcurveto
            -27 16 -22 28 34 36 43 24 21 vhcurveto
            49 58 122 100 64 48 rrcurveto
            14 8 47 38 16 vvcurveto
            16 -29 5 -67 -34 vhcurveto
            -117 -60 -3 -13 -14 1 -27 2 63 86 82 117 rrcurveto
            144 205 44 42 28 vvcurveto
            21 -22 39 -25 -16 -29 -30 -10 -11 vhcurveto
            -314 -286 104 99 -142 -118 -33 -28 -21 13 1 13 2 30 35 31 158 202 rrcurveto
            29 37 76 91 45 vvcurveto
            40 -35 15 -35 -95 -204 -101 -51 -83 vhcurveto
            -33 -21 -18 -14 -11 -38 -15 -54 rcurveline
            -6 -20 -2 -13 2 -7 rrcurveto
            -7 2 6 -2 9 hhcurveto
            8 17 7 5 7 hvcurveto
            91 48 84 50 153 76 6 -1 8 -3 -1 -7 rrcurveto
            -24 -47 -54 -85 -102 vhcurveto
            -185 -221 11 -31 -4 -22 rrcurveto
            -34 -6 42 -33 33 hhcurveto
            41 65 58 26 30 hvcurveto
            265 229 rlineto
            return
          </CharString>
          <CharString index="11">
            -13 -27 -24 -53 -32 vvcurveto
            -29 15 -24 33 49 134 107 49 43 vhcurveto
            -8 37 rlineto
            -29 -43 -57 -51 -42 hhcurveto
            -16 -15 7 17 hvcurveto
            47 87 70 32 vvcurveto
            22 -10 11 -19 8 vhcurveto
            9 3 26 10 12 vvcurveto
            12 -19 37 -46 -1 vhcurveto
            -116 -3 -260 -128 4 -125 rrcurveto
            return
          </CharString>
          <CharString index="12">
            36 47 28 26 15 48 rrcurveto
            46 14 -11 72 -59 hhcurveto
            -57 -99 -32 -9 -59 hvcurveto
            -175 -27 -90 -142 -14 -85 rrcurveto
            -18 -3 12 -3 17 hhcurveto
            29 47 19 13 26 hvcurveto
            181 89 -19 -10 80 34 rrcurveto
            2 5 18 9 6 hhcurveto
            6 4 -4 -6 hvcurveto
            1 -15 -55 -49 -132 -155 rrcurveto
            -41 -48 -85 -96 -64 vvcurveto
            -54 31 -38 63 -11 vhcurveto
            33 -6 132 106 259 252 34 callsubr
            return
          </CharString>
          <CharString index="13">
            rmoveto
            -31 -7 -18 -29 -27 25 -11 19 -13 hvcurveto
            -5 7 11 -9 9 hhcurveto
            5 76 callsubr
            9 -3 0 -21 19 hvcurveto
            1 41 42 -15 41 hhcurveto
            27 16 14 28 38 -57 46 -19 -6 -7 -7 -7 -3 2 -9 33 -23 hvcurveto
            -2 -2 -130 13 rlineto
            endchar
          </CharString>
          <CharString index="14">
            583 207 rmoveto
            -28 -47 -24 -44 -57 vvcurveto
            -47 32 -32 47 87 196 155 29 9 -2 7 -3 17 vhcurveto
            -33 -41 -108 -96 -52 hhcurveto
            -21 -17 17 23 15 11 51 79 111 hvcurveto
            171 240 26 29 -7 21 rrcurveto
            22 -12 42 -29 -29 -59 -69 -221 -225 vhcurveto
            -37 -37 -188 -170 -41 hhcurveto
            -12 -8 6 12 34 195 226 35 37 hvcurveto
            return
          </CharString>
          <CharString index="15">
            -10 -26 -11 -28 -30 vvcurveto
            -35 22 -31 37 74 106 115 49 51 vhcurveto
            -6 43 rlineto
            -24 -30 -86 -70 -38 hhcurveto
            -16 -9 6 16 45 71 79 32 29 hvcurveto
            16 14 27 23 -2 24 rrcurveto
            52 -4 -11 3 -8 hhcurveto
            -25 -98 -95 -19 -21 hvcurveto
            return
          </CharString>
          <CharString index="16">
            -5 -9 2 7 hvcurveto
            18 73 -9 18 vvcurveto
            14 -54 -8 -39 -13 vhcurveto
            -53 -17 -73 -84 -19 vvcurveto
            -26 33 4 64 2 vhcurveto
            -78 -86 rlineto
            -94 -33 -77 -96 -33 vvcurveto
            -19 20 -3 15 36 38 42 24 24 vhcurveto
            return
          </CharString>
          <CharString index="17">
            -294 -73 -89 -128 -67 vvcurveto
            -40 63 callsubr
            vhcurveto
            29 callsubr
            205 -4 130 89 34 29 -89 callsubr
            -1 -10 vhcurveto
            return
          </CharString>
          <CharString index="18">
            58 48 5 40 -5 72 -66 -37 -63 -47 -72 -22 -101 -31 -80 -7 -55 3 rrcurveto
            -54 2 -30 12 18 vvcurveto
            36 106 113 256 42 vhcurveto
            20 3 60 10 15 13 rrcurveto
            14 11 23 36 18 vvcurveto
            23 -57 return
          </CharString>
          <CharString index="19">
            184 372 rmoveto
            54 102 156 99 53 7 rrcurveto
            20 7 -25 -16 -51 -92 -184 -174 -249 hvcurveto
            -8 -11 -9 -14 -14 vvcurveto
            -25 34 -24 23 2 vhcurveto
            31 2 58 71 -17 42 rrcurveto
            76 110 166 258 129 vvcurveto
            62 -32 50 -67 -154 -243 -179 -153 -14 vhcurveto
            return
          </CharString>
          <CharString index="20">
            hstemhm
            -16 73 145 105 hintmask 01111100
            -84 callsubr
            hintmask 10111100
            -92 callsubr
            hintmask 01111100
            -99 -89 rlineto
            return
          </CharString>
          <CharString index="21">
            rmoveto
            -4 -10 -29 -13 -11 hhcurveto
            -30 -37 52 15 -28 hvcurveto
            -5 -6 -7 -8 callsubr
            26 -21 8 -8 vhcurveto
            -15 14 21 -26 22 hhcurveto
            24 35 14 9 23 hvcurveto
            81 32 rlineto
            48 19 15 21 18 vvcurveto
            5 -1 9 -8 -7 -20 -10 -3 -7 vhcurveto
            -88 -37 rlineto
            endchar
          </CharString>
          <CharString index="22">
            40 callsubr
            hintmask 01111100
            -68 callsubr
            hintmask 10111100
            -96 callsubr
            hintmask 01111100
            -22 callsubr
            return
          </CharString>
          <CharString index="23">
            185 177 rmoveto
            -42 -47 -55 -29 -18 hhcurveto
            -7 -1 10 5 42 24 22 31 22 hvcurveto
            -56 callsubr
            -75 -100 -97 vvcurveto
            -43 27 -56 49 55 67 90 34 39 vhcurveto
            53 callsubr
            return
          </CharString>
          <CharString index="24">
            22 31 30 70 39 vvcurveto
            16 -2 28 -22 -51 -129 -238 -49 -26 vhcurveto
            -31 -57 -32 -47 -59 -32 rrcurveto
            -29 -16 -27 -11 -40 vvcurveto
            -25 13 -15 16 -17 vhcurveto
            -27 -57 -43 -79 -65 vvcurveto
            -33 13 -93 46 7 vhcurveto
            73 11 140 110 8 119 1 18 2 18 -4 19 return
          </CharString>
          <CharString index="25">
            -42 callsubr
            71 85 81 48 48 vhcurveto
            -18 26 rlineto
            -44 -59 -11 -11 -18 hhcurveto
            -10 -8 6 10 hvcurveto
            63 123 rlineto
            return
          </CharString>
          <CharString index="26">
            362 187 rmoveto
            16 callsubr
            -33 13 38 3 hvcurveto
            2 22 rlineto
            192 63 49 74 49 vvcurveto
            40 -40 8 -32 vhcurveto
            -130 1 -145 -134 4 -131 rrcurveto
            -66 2 34 -65 73 -13 callsubr
            -262 7 rmoveto
            return
          </CharString>
          <CharString index="27">
            27 callsubr
            hintmask 01111100
            hintmask 10111100
            -88 callsubr
            hintmask 01111100
            -35 callsubr
            hintmask 10111100
            -25 -5 rlineto
            hintmask 01111100
            return
          </CharString>
          <CharString index="28">
            hstem
            -7 73 vstem
            465 165 rmoveto
            -8 37 -222 -197 -2 2 148 220 rlineto
            14 21 27 41 26 vvcurveto
            14 -10 39 -17 -3 vhcurveto
            -19 -3 -64 -69 -103 -95 -42 -39 -48 -43 -53 -6 1 21 6 20 12 17 rrcurveto
            33 26 113 104 38 vvcurveto
            14 -28 32 -15 vhcurveto
            -28 -1 -171 -127 4 -120 3 -74 48 -42 28 -2 12 -1 73 54 82 69 34 callsubr
            -134 -226 rlineto
            -8 -13 -19 -31 -16 vvcurveto
            -17 9 -49 21 16 28 39 11 10 vhcurveto
            301 331 rlineto
            return
          </CharString>
          <CharString index="29">
            273 168 rmoveto
            -51 callsubr
            -60 -125 -119 -122 -25 callsubr
            return
          </CharString>
          <CharString index="30">
            -23 20 -6 18 -6 vhcurveto
            -12 -25 -17 -22 -16 -21 rrcurveto
            22 21 -8 74 60 hvcurveto
            17 20 30 64 27 vvcurveto
            23 -35 0 -16 -43 -49 -56 -41 vhcurveto
            return
          </CharString>
          <CharString index="31">
            189 -228 -21 239 88 46 callsubr
            81 88 -40 callsubr
            562 345 -26 callsubr
            -57 -71 -42 -98 -11 -93 -98 -62 rcurveline
            -13 29 -10 33 -29 17 187 261 rcurveline
            -83 callsubr
            31 15 27 20 23 20 rrcurveto
            -54 4 19 -57 66 hhcurveto
            86 94 101 57 55 hvcurveto
            -14 30 rlineto
            -192 104 rmoveto
            -2 2 37 80 45 81 69 56 rlinecurve
            2 -2 1 1 -20 -58 -62 -95 -70 -65 rlinecurve
            endchar
          </CharString>
          <CharString index="32">
            20 callsubr
            25 callsubr
            hintmask 01110000
            hintmask 10101010
            -93 callsubr
            hintmask 01101100
            -95 callsubr
            hintmask 10101010
            64 callsubr
            return
          </CharString>
          <CharString index="33">
            179 -228 -21 234 101 46 callsubr
            293 120 -40 callsubr
            278 338 rmoveto
            -124 -77 37 callsubr
            -83 callsubr
            36 17 30 24 27 25 34 callsubr
            -1 -1 0 -2 -3 vvcurveto
            -25 callsubr
            -51 callsubr
            -49 -92 -78 -96 -31 vhcurveto
            226 194 -12 callsubr
          </CharString>
          <CharString index="34">
            rmoveto
            4 -2 -47 -63 -52 vvcurveto
            -17 5 -13 7 -16 vhcurveto
            -21 -23 -21 -19 -33 hhcurveto
            -25 -19 9 29 31 19 39 22 22 hvcurveto
            30 29 47 24 34 20 rrcurveto
            return
          </CharString>
          <CharString index="35">
            22 40 24 40 29 34 rrcurveto
            14 -63 45 -10 -74 hhcurveto
            124 217 rlineto
            10 18 21 34 21 vvcurveto
            18 -14 25 -21 -45 -120 -91 -81 -98 vhcurveto
            return
          </CharString>
          <CharString index="36">
            550 191 rmoveto
            -26 -48 -28 -63 -55 vvcurveto
            -43 18 -44 50 43 105 54 186 144 vhcurveto
            8 10 3 5 8 vvcurveto
            9 -2 12 -2 24 vhcurveto
            -36 -29 -131 -135 -40 hhcurveto
            -22 -4 23 18 4 2 20 29 58 hvcurveto
            96 190 128 129 63 vvcurveto
            48 -65 47 -17 -23 -75 -57 -20 -30 vhcurveto
            -25 -17 -85 -83 -192 -231 65 callsubr
            129 227 39 66 6 80 rrcurveto
            37 3 -33 19 -34 hhcurveto
            -83 -124 -70 -39 -71 hvcurveto
            55 callsubr
            49 47 5 16 1 vvcurveto
            5 -6 3 -5 -30 -173 -129 -120 -12 -1 -32 19 9 13 7 6 8 vhcurveto
            111 168 110 54 34 hhcurveto
            13 3 -8 -13 -55 -192 -335 -41 -63 hvcurveto
            -3 -5 -7 -11 -6 vvcurveto
            -23 57 -40 22 13 12 18 10 7 vhcurveto
            53 71 106 144 29 33 71 80 83 81 84 80 34 callsubr
            -170 -313 rlineto
            return
          </CharString>
          <CharString index="37">
            hstemhm
            -8 101 154 88 hintmask 10111100
            -81 callsubr
            hintmask 11011100
            -5 callsubr
            hintmask 10111100
            1 -17 -60 -69 -88 -30 rrcurveto
            return
          </CharString>
          <CharString index="38">
            8 296 73 10 -20 114 33 80 21 30 50 hstemhm
            175 68 124 50 31 50 hintmask 01101011
            hintmask 01111111
            243 609 rmoveto
            2 vlineto
            hintmask 10101111
            15 44 47 11 48 hhcurveto
            19 47 0 -26 -40 -179 -21 -36 -4 hvcurveto
            -17 -2 -22 -8 -12 -13 rrcurveto
            -10 -11 -10 -20 -14 vvcurveto
            -8 1 -5 9 vhcurveto
            5 8 2 6 hhcurveto
            5 21 14 1 22 hhcurveto
            24 95 -3 -33 -22 -92 -46 -99 -23 -18 2 8 -22 hvcurveto
            16 14 -1 0 4 vvcurveto
            4 -5 3 -5 -16 -40 -43 -15 -21 36 -29 81 157 81 81 50 65 -83 7 -52 7 vhcurveto
            2 vlineto
            165 34 -11 -1 22 12 rrcurveto
            21 12 19 27 22 vvcurveto
            69 -75 4 -58 -42 -46 -2 -14 -40 vhcurveto
            hintmask 01111111
            -25 -9 -37 -14 -30 vvcurveto
            -20 12 -12 21 15 31 1 3 15 vhcurveto
            3 8 2 5 7 -20 3 -4 hvcurveto
            -13 2 rlineto
            endchar
          </CharString>
          <CharString index="39">
            -64 callsubr
            -54 -135 rmoveto
            53 callsubr
            return
          </CharString>
          <CharString index="40">
            hintmask 10101100
            hintmask 11001100
            -58 callsubr
            hintmask 10011100
            -72 callsubr
            hintmask 11001100
            -20 callsubr
            hintmask 10101100
            -91 callsubr
            hintmask 11001100
            -82 callsubr
            return
          </CharString>
          <CharString index="41">
            79 -24 113 -85 101 275 -20 hstemhm
            -183 723 -290 105 hintmask 10110000
            hintmask 01101000
            233 177 rmoveto
            -47 -42 -55 -29 -18 -1 rrcurveto
            -7 2 -1 9 5 vvcurveto
            34 29 34 26 18 vhcurveto
            -56 callsubr
            -39 -56 -20 -38 -72 -138 -61 -78 -39 -28 -70 -51 -5 -34 43 -23 49 -26 75 70 74 149 rrcurveto
            -29 23 19 -14 24 hhcurveto
            55 67 90 34 39 hvcurveto
            53 callsubr
            hintmask 10101000
            -92 callsubr
            hintmask 01101000
            -99 -89 rlineto
            endchar
          </CharString>
          <CharString index="42">
            5 callsubr
            38 callsubr
            hintmask 11101000
            -39 callsubr
            hintmask 11110000
            -90 callsubr
            hintmask 11101000
            -59 callsubr
            return
          </CharString>
          <CharString index="43">
            309 277 24 callsubr
            -198 -200 -31 3 -20 -4 rlinecurve
            -15 -3 -4 18 -1 5 rrcurveto
            49 29 61 238 73 vhcurveto
            return
          </CharString>
          <CharString index="44">
            338 213 rmoveto
            122 54 27 -55 -31 vvcurveto
            -294 -131 -139 -155 -59 vvcurveto
            -27 61 -35 23 59 158 90 53 59 vhcurveto
            76 67 69 86 19 102 rrcurveto
            70 26 3 6 13 vvcurveto
            5 7 20 -80 -27 vhcurveto
            -11 79 -42 24 -75 14 rrcurveto
            95 56 154 46 134 vvcurveto
            95 -77 25 -82 -99 -151 -44 -49 -85 vhcurveto
            -121 -70 -19 -63 -5 -134 rrcurveto
            158 275 117 52 98 hhcurveto
            14 22 -10 -17 -34 -33 -18 -125 -69 hvcurveto
            -24 -13 -180 -77 -55 -42 -17 -13 -2 -10 -7 -19 rrcurveto
            -17 -44 -9 -33 -4 vvcurveto
            -9 7 -5 9 20 -12 5 41 93 vhcurveto
            104 46 rlineto
            135 -93 rmoveto
            -107 -37 -196 -151 -63 hhcurveto
            -4 -8 4 6 25 132 136 176 87 hvcurveto
            return
          </CharString>
          <CharString index="45">
            -122 -134 -114 rrcurveto
            -36 -42 -87 -42 -56 hhcurveto
            -38 -15 30 35 82 55 80 56 56 hvcurveto
            -9 1 0 -19 13 hhcurveto
            return
          </CharString>
          <CharString index="46">
            38 callsubr
            hintmask 11110100
            -39 callsubr
            hintmask 11111000
            -90 callsubr
            hintmask 11110100
            -59 callsubr
            return
          </CharString>
          <CharString index="47">
            -64 371 33 46 50 -2 42 106 -20 58 -20 hstemhm
            102 50 68 106 hintmask 11011100
            hintmask 10111110
            368 572 rmoveto
            -20 -14 -19 -23 -28 5 rrcurveto
            12 23 13 21 27 vvcurveto
            18 -4 12 -19 5 vhcurveto
            7 4 8 3 9 vvcurveto
            17 -22 6 -14 -1 vhcurveto
            -40 -2 -47 -16 -35 -26 rrcurveto
            hintmask 11011110
            -36 -27 -23 -29 1 -45 rrcurveto
            -55 2 31 -34 34 hhcurveto
            41 32 22 26 27 hvcurveto
            hintmask 10111110
            47 29 14 35 29 hvcurveto
            -6 25 rlineto
            -120 46 rmoveto
            hintmask 11011110
            -4 -8 -24 -36 -25 vvcurveto
            -11 3 -8 5 -9 vhcurveto
            -13 -15 -14 -8 -21 hhcurveto
            -16 -10 2 18 18 10 24 14 13 hvcurveto
            19 17 31 15 20 12 rrcurveto
            hintmask 10111110
            2 -1 rlineto
            hintmask 11011100
            -160 -214 rmoveto
            -33 286 33 -286 vlineto
            endchar
          </CharString>
          <CharString index="48">
            62 callsubr
            29 -3 16 1 callsubr
            -19 -15 -50 -42 -14 vvcurveto
            -6 7 -5 4 1 vhcurveto
            17 3 58 40 65 22 39 callsubr
            return
          </CharString>
          <CharString index="49">
            557 348 rmoveto
            -153 -11 -2 2 289 239 2 -2 -136 -228 rlineto
            47 -118 rmoveto
            80 4 rlineto
            return
          </CharString>
          <CharString index="50">
            -15 371 33 40 68 -56 50 119 59 -44 44 0 -20 hstemhm
            88 50 113 60 hintmask 10100110
            hintmask 11001011
            272 544 24 callsubr
            1 1 rlineto
            -9 -16 -15 -32 -19 vvcurveto
            -18 10 -14 21 32 87 64 25 22 vhcurveto
            -4 23 rlineto
            -14 -23 -37 -30 -28 hhcurveto
            -10 -10 4 10 hvcurveto
            28 57 42 20 vvcurveto
            13 -7 6 -12 5 vhcurveto
            6 2 17 6 7 vvcurveto
            7 -13 23 -29 -1 vhcurveto
            -76 -2 -169 -77 3 -75 rrcurveto
            hintmask 10100111
            -31 1 38 -43 18 hhcurveto
            15 41 34 10 13 hvcurveto
            hintmask 11001011
            58 44 rlineto
            hintmask 10110010
            37 79 rmoveto
            -115 -125 -26 -2 -10 hhcurveto
            -10 0 6 3 30 16 36 153 44 hvcurveto
            53 callsubr
            -221 -219 rmoveto
            -33 335 33 -335 vlineto
            endchar
          </CharString>
          <CharString index="51">
            39 28 6 9 31 35 11 9 27 28 2 16 rrcurveto
            30 4 -51 -9 -14 hhcurveto
            -17 -13 -2 -9 -14 hvcurveto
            -64 -42 return
          </CharString>
          <CharString index="52">
            246 428 rmoveto
            1 23 111 93 258 9 34 callsubr
            -54 -37 -19 -31 -2 vvcurveto
            -10 6 -5 10 8 10 6 4 7 vhcurveto
            39 28 8 5 43 16 rrcurveto
            59 23 25 17 74 vvcurveto
            20 -3 8 -23 5 vhcurveto
            9 -42 -42 5 -42 hhcurveto
            -219 -181 -95 -51 -31 hvcurveto
            -16 -27 -16 -73 -33 vvcurveto
            -60 52 -16 50 -8 vhcurveto
            48 -8 277 -40 -51 vvcurveto
            -16 -98 -103 -357 13 vhcurveto
            2 vlineto
            6 6 5 5 6 4 rrcurveto
            7 4 10 5 10 vvcurveto
            6 -3 1 -5 -15 -59 -19 -10 -12 vhcurveto
            -16 -15 -35 -53 -21 vvcurveto
            -58 122 0 39 144 349 32 199 49 -47 53 -101 24 vhcurveto
            -279 65 13 7 14 vvcurveto
            return
          </CharString>
          <CharString index="53">
            -28 callsubr
            -333 -245 12 -216 9 -155 90 return
          </CharString>
          <CharString index="54">
            11 callsubr
            -27 callsubr
            -34 36 -5 27 -3 vhcurveto
            return
          </CharString>
          <CharString index="55">
            21 callsubr
            hstemhm
            -16 73 145 105 hintmask 01111000
            -84 callsubr
            hintmask 10111000
            -92 callsubr
            hintmask 01111000
            -99 -89 rlineto
            return
          </CharString>
          <CharString index="56">
            -29 -40 -52 -53 -53 hhcurveto
            -46 -15 22 41 8 hvcurveto
            42 29 99 89 50 vvcurveto
            22 -27 6 -17 return
          </CharString>
          <CharString index="57">
            6 callsubr
            -99 callsubr
            return
          </CharString>
          <CharString index="58">
            -1 callsubr
            40 callsubr
            hintmask 01111000
            -68 callsubr
            hintmask 10111000
            -96 callsubr
            hintmask 01111000
            -22 callsubr
            return
          </CharString>
          <CharString index="59">
            -24 529 40.5 51.5 73 hstem
            415 39 vstem
            257 544 rmoveto
            7 1 9 2 8 vvcurveto
            11 -16 0 -8 2 vhcurveto
            -39 3 rlineto
            2 vlineto
            21 49 73 27 54 hhcurveto
            9 20 5 -12 -33 -69 -32 -27 -14 hvcurveto
            -49 -25 -186 -88 -54 vvcurveto
            -22 10 -29 17 -15 vhcurveto
            -9 10 28 2 13 hhcurveto
            207 6 -4 31 28 73 -251 -41 rcurveline
            -2 2 55 44 170 75 45 35 rlinecurve
            30 24 14 13 38 vvcurveto
            85 -21 14 -48 -56 -105 -23 -39 -38 vhcurveto
            -16 -17 -20 -41 -22 vvcurveto
            -8 3 -15 12 4 13 2 1 5 vhcurveto
            70 12 rlineto
            endchar
          </CharString>
          <CharString index="60">
            -53 callsubr
            endchar
          </CharString>
          <CharString index="61">
            15 callsubr
            27 callsubr
            hintmask 01111000
            hintmask 10111000
            -88 callsubr
            hintmask 01111000
            -35 callsubr
            hintmask 10111000
            -25 -5 rlineto
            return
          </CharString>
          <CharString index="62">
            408 148 rmoveto
            -15 -18 -44 -35 -24 hhcurveto
            -10 -8 9 9 hvcurveto
            69 123 76 39 vvcurveto
            -3 21 -6 18 -6 15 rrcurveto
            14 -6 -6 5 -4 hhcurveto
            -29 -184 -123 -102 -80 hvcurveto
            -5 -4 -9 -9 -7 hhcurveto
            -6 -5 5 6 hvcurveto
            24 126 101 39 vvcurveto
            6 5 14 -60 2 vhcurveto
            -17 -9 -1 -11 -13 hvcurveto
            -58 -49 -63 -101 3 -69 rrcurveto
            -34 1 11 -63 44 hhcurveto
            27 37 49 19 15 hvcurveto
            45 58 51 52 58 43 34 callsubr
            -32 -46 -54 -66 -60 vvcurveto
            -34 18 -32 38 73 103 123 47 53 vhcurveto
            -8 44 -60 -50 rlineto
            return
          </CharString>
          <CharString index="63">
            380 12 3 callsubr
            4 20.5 -19 7 330 -20 return
          </CharString>
          <CharString index="64">
            43 16 94 272 -20 -79 callsubr
            return
          </CharString>
          <CharString index="65">
            205 204 218 7 rlineto
            -88 -162 15 1 -8 vvcurveto
            -32 15 -28 36 return
          </CharString>
          <CharString index="66">
            41 callsubr
            -98 callsubr
            return
          </CharString>
          <CharString index="67">
            vstem
            22 -167 rmoveto
            -15 29 -9 28 4 32 4 33 16 36 26 44 24 -9 16 -1 32 2 9 -75 -45 -78 -62 -41 rrcurveto
            return
          </CharString>
          <CharString index="68">
            748 616 rmoveto
            -2 42 rlineto
            33 -15 -94 -3 -32 hhcurveto
            -330 -145 -153 -98 -56 47 -52 227 -7 hvcurveto
            -3 vlineto
            return
          </CharString>
          <CharString index="69">
            330 0 78 492 79 hstem
            101 97 430 105 vstem
            177 78 rmoveto
            -146 hlineto
            -19 -78 rlineto
            258 hlineto
            14 58 -64 40 -44 98 33 134 rlinecurve
            135 34 109 105 124 hhcurveto
            130 42 -120 -117 -29 hvcurveto
            -37 -145 -91 -88 -84 -42 -14 -58 rcurveline
            257 hlineto
            20 78 rlineto
            -148 hlineto
            1 2 80 51 89 93 32 128 rlinecurve
            149 37 -77 148 -188 hhcurveto
            -180 -161 -131 -170 -43 hvcurveto
            -31 -124 42 -92 54 -52 rrcurveto
            endchar
          </CharString>
          <CharString index="70">
            hstem
            165 101 vstem
            152 286 rmoveto
            6 -34 4 -27 3 -21 -3 -58 -16 -17 -60 -37 -19 26 -22 31 -37 2 144 135 rcurveline
            136 -160 rmoveto
            -49 -37 -39 -30 -64 11 rrcurveto
            64 39 66 61 82 vvcurveto
            44 -15 34 -4 38 vhcurveto
            28 -3 -6 9 -30 hhcurveto
            -36 -19 -32 -33 -2 hvcurveto
            -217 -199 rlineto
            -8 -8 -16 -14 -13 vvcurveto
            -9 7 -10 10 9 7 7 6 6 vhcurveto
            18 -73 74 -38 67 -3 80 -4 109 91 61 61 -10 38 rcurveline
            -60 -46 rlineto
            return
          </CharString>
          <CharString index="71">
            rmoveto
            5 -9 -10 9 -11 hhcurveto
            -19 -66 -52 -52 -40 37 -32 38 61 25 59 52 11 -2 12 -8 8 hvcurveto
            -36 20 rlineto
            -19 -36 rmoveto
            2 -8 1 -9 -8 vvcurveto
            -32 -20 -15 -24 -21 vhcurveto
            3 -5 4 3 vvcurveto
            39 16 22 30 22 vhcurveto
            endchar
          </CharString>
          <CharString index="72">
            -28 -3 74 -46 19 hhcurveto
            19 50 41 11 15 hvcurveto
            10 8 20 11 15 vvcurveto
            5 -4 5 -5 -11 -16 -4 -2 -11 vhcurveto
            return
          </CharString>
          <CharString index="73">
            -44 690 -20 hstem
            164 73 vstem
            326 621 24 callsubr
            -37 -44 -82 -114 rlineto
            -16 -29 -29 -65 -30 vvcurveto
            -31 28 -4 24 -13 vhcurveto
            -2 3 8 -3 3 hhcurveto
            6 3 3 5 hvcurveto
            7 -2 7 7 vvcurveto
            40 53 85 23 35 vhcurveto
            53 82 rlineto
            12 19 37 55 20 vvcurveto
            7 -7 14 -4 7 vhcurveto
            6 -4 -5 7 -10 hhcurveto
            -18 -72 -41 -11 -23 hvcurveto
            -15 -7 -13 -6 -2 -17 rrcurveto
            -4 -2 -10 7 3 12 5 1 3 vhcurveto
            61 21 rlineto
            endchar
          </CharString>
          <CharString index="74">
            23 14 16 23 27 -19 15 -23 6 hvcurveto
            -42 12 -14 24 7 vvcurveto
            15 34 49 11 12 vhcurveto
            8 10 14 15 14 vvcurveto
            27 -22 32 -10 23 vhcurveto
            -23 -52 -30 -37 -27 -45 rrcurveto
            -14 -18 -14 -18 -23 vvcurveto
            -43 -9 105 -91 38 hhcurveto
            return
          </CharString>
          <CharString index="75">
            -23 -14 -16 -23 -27 19 -15 23 -6 hvcurveto
            42 -12 14 -24 -7 vvcurveto
            -15 -34 -49 -11 -12 vhcurveto
            -8 -10 -14 -15 -14 vvcurveto
            -27 22 -32 10 -23 vhcurveto
            23 52 30 37 27 45 rrcurveto
            14 18 14 18 23 vvcurveto
            43 9 -105 91 -38 hhcurveto
            return
          </CharString>
          <CharString index="76">
            43 rmoveto
            -77 callsubr
            return
          </CharString>
          <CharString index="77">
            28 callsubr
            hstemhm
            -8 101 154 88 hintmask 10111000
            -81 callsubr
            hintmask 11011000
            -5 callsubr
            hintmask 10111000
            1 -17 -60 -69 -88 -30 rrcurveto
            return
          </CharString>
          <CharString index="78">
            16 -6 19 -19 -32 -77 -70 -37 -18 12 -6 15 -3 vhcurveto
            -70 -85 11 -33 114 124 122 21 2 -2 -111 -92 -66 -26 -5 -33 rlinecurve
            -3 -19 24 -2 15 -4 39 -11 15 -5 10 -42 -130 -104 rcurveline
            -40 -32 -51 -43 1 -55 rrcurveto
            -26 18 -25 27 3 vhcurveto
            66 7 156 102 23 160 160 139 rcurveline
            -231 -187 rmoveto
            -13 -72 -88 -81 -68 -18 4 36 22 23 28 22 115 90 rcurveline
            return
          </CharString>
          <CharString index="79">
            15 5 34 9 21 vvcurveto
            16 -50 71 -47 -7 vhcurveto
            -193 -27 return
          </CharString>
          <CharString index="80">
            29 -35 0 -14 3 vhcurveto
            -57 12 -44 -83 -36 vvcurveto
            return
          </CharString>
          <CharString index="81">
            rmoveto
            -10 callsubr
            217 210 26 88 7 95 43 callsubr
            -95 -93 -109 -88 hvcurveto
            return
          </CharString>
          <CharString index="82">
            -51 27 -68 59 76 88 90 55 45 vhcurveto
            -9 38 rlineto
            return
          </CharString>
          <CharString index="83">
            rlineto
            23 34 -4 -29 -25 -30 -11 -21 hvcurveto
            -30 -24 22 -15 hhcurveto
            -5 -4 -6 -5 -30 91 -16 23 -1 hvcurveto
            47 -3 56 18 53 vvcurveto
            48 -55 11 -39 -3 vhcurveto
            return
          </CharString>
          <CharString index="84">
            -25 -18 -15 -44 -26 12 -125 7 -75 hvcurveto
            -22 2 12 -9 10 hhcurveto
            10 12 9 22 2 hvcurveto
            7 75 12 125 26 vvcurveto
            44 -18 15 -25 vhcurveto
            return
          </CharString>
          <CharString index="85">
            -18 callsubr
            92 74 rlineto
            return
          </CharString>
          <CharString index="86">
            23 -20 6 -18 6 vhcurveto
            12 25 17 22 16 21 rrcurveto
            -22 -21 8 -74 -60 hvcurveto
            -17 -20 -30 -64 -27 vvcurveto
            -23 35 0 16 43 49 56 41 vhcurveto
            return
          </CharString>
          <CharString index="87">
            -224 -186 rlineto
            -4 -41 -2 -1 -16 hvcurveto
            return
          </CharString>
          <CharString index="88">
            -61 -3 -72 -27 -54 -44 -56 -43 -37 -50 2 -75 return
          </CharString>
          <CharString index="89">
            -52 2 58 -66 28 hhcurveto
            23 64 52 15 19 hvcurveto
            return
          </CharString>
          <CharString index="90">
            -14 -28 -28 -63 -3 -29 -2 -15 4 -23 12 -10 6 -5 5 4 5 6 6 7 5 13 4 10 9 27 20 35 15 25 21 31 7 10 24 26 29 30 -4 -1 -34 24 rrcurveto
            6 -8 -9 12 -12 hhcurveto
            -11 -4 -5 -33 -16 hvcurveto
            -27 -54 rlineto
            return
          </CharString>
          <CharString index="91">
            -84 -95 -220 -164 -126 hhcurveto
            -72 -34 42 71 76 51 111 70 82 hvcurveto
            224 262 114 4 18 5 rrcurveto
            16 4 11 -7 -17 vvcurveto
            -33 -63 -90 -97 -84 vhcurveto
            55 callsubr
            16 5 -5 7 -10 hhcurveto
            -11 -33 -32 -7 -7 hvcurveto
            return
          </CharString>
          <CharString index="92">
            40 13 hhcurveto
            7 -1 -10 -9 -8 hvcurveto
            -48 -54 -86 -109 -75 vvcurveto
            -15 5 -15 18 19 51 40 12 17 vhcurveto
            14 10 42 30 18 vvcurveto
            11 -10 2 -8 1 vhcurveto
            32 57 82 117 64 vvcurveto
            29 -16 36 -34 -53 -147 -149 -43 -36 vhcurveto
            return
          </CharString>
          <CharString index="93">
            -7 callsubr
            hintmask 10111000
            -27 callsubr
            hintmask 01111000
            -34 36 -5 27 -3 vhcurveto
            return
          </CharString>
          <CharString index="94">
            hhcurveto
            99 77 callsubr
            71 61 hvcurveto
            -9 38 rlineto
            return
          </CharString>
          <CharString index="95">
            rmoveto
            43 37 49 40 18 -15 13 -18 -39 -48 -36 -41 -24 16 -19 24 hvcurveto
            endchar
          </CharString>
          <CharString index="96">
            348 317 rmoveto
            -21 -18 -27 -30 -30 vvcurveto
            -32 27 -20 29 4 vhcurveto
            126 19 258 256 -7 135 rrcurveto
            63 -3 -39 32 -60 hhcurveto
            -119 -210 -160 -81 -85 hvcurveto
            -103 -97 -123 -158 -147 vvcurveto
            return
          </CharString>
          <CharString index="97">
            -36 -40 -77 -64 -55 hhcurveto
            -27 -14 20 23 -9 hvcurveto
            -5 24 3 28 9 17 return
          </CharString>
          <CharString index="98">
            -98 -60 200 hstem
            49 150 vstem
            56 -31 callsubr
            endchar
          </CharString>
          <CharString index="99">
            -4 -8 -5 rrcurveto
            -10 -7 -11 -7 -14 vvcurveto
            -14 return
          </CharString>
          <CharString index="100">
            62 -7 25 123 1 vvcurveto
            return
          </CharString>
          <CharString index="101">
            -74 vvcurveto
            -19 4 -24 19 -10 vhcurveto
            -11 20 43 0 23 hhcurveto
            125 180 51 61 108 hvcurveto
            118 67 119 114 144 vvcurveto
            84 -32 90 -73 47 vhcurveto
            41 -64 -100 12 -75 hhcurveto
            -104 return
          </CharString>
          <CharString index="102">
            0 callsubr
            5 -6 -7 vvcurveto
            return
          </CharString>
          <CharString index="103">
            102 hstemhm
            -101 597 hintmask 10100000
            hintmask 01100000
            219 103 rmoveto
            -27 9 -28 3 -29 -2 27 36 28 34 37 27 rrcurveto
            9 13 48 31 16 hhcurveto
            8 3 -7 -7 -18 -14 -17 -11 -14 hvcurveto
            -71 -84 rlineto
            return
          </CharString>
          <CharString index="104">
            -59 404 81 hstem
            68 342 vstem
            112 488 rmoveto
            -37 4 -3 -63 -4 -29 113 8 110 -4 79 -4 rrcurveto
            -1 22 9 84 9 hhcurveto
            2 vlineto
            -106 -96 -7 10 -96 hvcurveto
            endchar
          </CharString>
          <CharString index="105">
            -20 15 -30 5 -40 -11 -1 1 rcurveline
            return
          </CharString>
          <CharString index="106">
            88 -25 113 -87 73 301 -20 return
          </CharString>
          <CharString index="107">
            27 66 58 48 50 13 rrcurveto
            7 2 return
          </CharString>
          <CharString index="108">
            -6 35 137 97 237 -2 rrcurveto
            return
          </CharString>
          <CharString index="109">
            73 44 24 57 45 hvcurveto
            -10 42 return
          </CharString>
          <CharString index="110">
            -21 225.5 126 return
          </CharString>
          <CharString index="111">
            -98 148 150 hstem
            124 150 vstem
            187 148 -47 callsubr
          </CharString>
          <CharString index="112">
            303 -84 133 336 -20 188 135 return
          </CharString>
          <CharString index="113">
            240 -5 73 436 50 133 -20 return
          </CharString>
          <CharString index="114">
            94 vstem
            435 726 rmoveto
            -207 -166 -166 -207 -206 166 -167 207 207 166 167 206 207 -166 166 -207 hvcurveto
            return
          </CharString>
          <CharString index="115">
            hvcurveto
            -123 -31 62 -69 84 hhcurveto
            88 96 73 130 32 hvcurveto
            122 31 -57 68 -86 hhcurveto
            -19 -58 rmoveto
            61 11 -57 -80 -20 hvcurveto
            -90 -23 -46 -50 -52 hhcurveto
            -52 -21 return
          </CharString>
          <CharString index="116">
            6 28 -3 17 1 callsubr
            -2 -2 2 vlineto
            -2 -4 -65 -51 -16 vvcurveto
            -6 5 -4 6 17 58 43 22 65 vhcurveto
            30 callsubr
            return
          </CharString>
          <CharString index="117">
            -79 52 callsubr
            300 vstem
            320 vmoveto
            -88 300 88 -300 vlineto
            endchar
          </CharString>
          <CharString index="118">
            rmoveto
            -7 callsubr
            return
          </CharString>
          <CharString index="119">
            -73 -45 rmoveto
            -4 5 7 -5 7 15 7 21 16 hhcurveto
            8 9 -5 -7 -29 -84 -148 -66 10 hvcurveto
            -3 -5 20 10 50 42 60 42 27 hvcurveto
            hintmask 0111111011000000
            return
          </CharString>
          <CharString index="120">
            rmoveto
            4 4 6 6 7 vvcurveto
            16 -20 17 -16 -2 vhcurveto
            -67 -8 -137 -95 -127 vvcurveto
            -50 32 -64 57 100 92 144 92 37 -12 22 -39 1 vhcurveto
            return
          </CharString>
          <CharString index="121">
            vstem
            194 251 rmoveto
            -19 1 10 -25 23 hhcurveto
            27 79 77 55 30 -14 16 -31 -56 -96 -54 -34 -45 hvcurveto
            -65 -49 -30 -31 -84 vvcurveto
            -74 37 -72 77 return
          </CharString>
          <CharString index="122">
            94 377 -20 26 -20 217 113 return
          </CharString>
          <CharString index="123">
            -42 -53 -84 -73 -71 hhcurveto
            -32 return
          </CharString>
          <CharString index="124">
            158 151 2 -2 -65 -110 -50 -82 -46 -65 rlinecurve
            -41 -58 -22 -50 1 -50 rrcurveto
            -18 6 -27 23 19 18 27 15 8 vhcurveto
            return
          </CharString>
          <CharString index="125">
            -42 -8 -45 -1 -42 -10 rlinecurve
            -15 -4 -7 -12 -9 -12 rrcurveto
            -15 -20 -47 -56 -23 vvcurveto
            -18 17 -3 14 27 28 16 8 24 vhcurveto
            return
          </CharString>
          <CharString index="126">
            -227 11 -21 659 -20 hstem
            -169 604 vstem
            -105 -10 rmoveto
            540 659 rlineto
            -65 hlineto
            -539 -659 rlineto
            endchar
          </CharString>
          <CharString index="127">
            475 -20 88 -51 -21 700 -20 return
          </CharString>
          <CharString index="128">
            79 -24 113 -85 102 274 -20 return
          </CharString>
          <CharString index="129">
            12 13 19 8 6 hvcurveto
            return
          </CharString>
          <CharString index="130">
            -3 13 13 -3 14 hhcurveto
            16 15 3 3 15 hvcurveto
            hintmask 10100000
            -12 24 20 -8 27 hhcurveto
            108 90 72 72 74 hvcurveto
            -7 46 return
          </CharString>
          <CharString index="131">
            rmoveto
            2 -2 return
          </CharString>
          <CharString index="132">
            hstemhm
            48 882 -785 144 168 146 -72 118 return
          </CharString>
          <CharString index="133">
            76 29 rmoveto
            90 3 89 -12 88 -19 196 -41 -4 2 64 64 53 53 rcurveline
            -150 36 -86 17 -166 32 return
          </CharString>
          <CharString index="134">
            hstemhm
            191 132 151 88 return
          </CharString>
          <CharString index="135">
            -42 -16 88 249 58 0 -20 return
          </CharString>
          <CharString index="136">
            44 -12 46 -9 47 -1 return
          </CharString>
          <CharString index="137">
            56 18 2 4 -3 57 return
          </CharString>
          <CharString index="138">
            -53 rrcurveto
            -4 -17 -10 -35 -17 vvcurveto
            -23 15 -12 23 47 70 31 8 49 vhcurveto
            9 1 22 5 12 vvcurveto
            return
          </CharString>
          <CharString index="139">
            -12 39 rlineto
            -45 -58 -87 -70 -76 hhcurveto
            -52 -24 31 23 28 18 15 22 16 hvcurveto
            84 63 rlineto
            endchar
          </CharString>
          <CharString index="140">
            rmoveto
            540 658 rlineto
            -64 hlineto
            -541 -658 rlineto
            return
          </CharString>
          <CharString index="141">
            2 -2 rcurveline
            return
          </CharString>
          <CharString index="142">
            381 166 rmoveto
            -3 43 -158 -122 -8 33 -17 26 -27 20 rlinecurve
            128 93 rlineto
            return
          </CharString>
          <CharString index="143">
            343 -220 -21 260 169 505 -20 return
          </CharString>
          <CharString index="144">
            -13 29 -10 33 -29 17 rlinecurve
            187 261 rlineto
            return
          </CharString>
          <CharString index="145">
            hstemhm
            21 113 -4 113 return
          </CharString>
          <CharString index="146">
            30 callsubr
            rrcurveto
            return
          </CharString>
          <CharString index="147">
            hstemhm
            -31 73 178 93 return
          </CharString>
          <CharString index="148">
            -3 -6 73 312 -20 return
          </CharString>
          <CharString index="149">
            rmoveto
            0 callsubr
            3 -6 -7 vvcurveto
            1 -17 -58 -69 -88 -30 rrcurveto
            return
          </CharString>
          <CharString index="150">
            rrcurveto
            13 1 -4 24 -17 hhcurveto
            -32 return
          </CharString>
          <CharString index="151">
            112 99 50 69 55 vvcurveto
            26 -15 21 -27 -54 -101 -66 -31 -43 vhcurveto
            -2 2 return
          </CharString>
          <CharString index="152">
            rmoveto
            -46 -20 -71 -35 -34 27 -30 35 36 22 87 35 26 -28 22 -26 hvcurveto
            return
          </CharString>
          <CharString index="153">
            hstem
            -86 88 118 73 return
          </CharString>
          <CharString index="154">
            12 8 18 15 16 vvcurveto
            11 -13 68 -19 -20 -34 -17 -12 -79 vhcurveto
            return
          </CharString>
          <CharString index="155">
            rmoveto
            47 103 57 90 49 24 -18 -57 -62 -96 -71 -66 65 callsubr
            return
          </CharString>
          <CharString index="156">
            -38 -55 -30 hvcurveto
            37 -34 rlineto
            36 26 return
          </CharString>
          <CharString index="157">
            -110 -43 3 -55 79 30 rlineto
            2 hlineto
            -79 -315 rlineto
            return
          </CharString>
          <CharString index="158">
            vvcurveto
            -59 16 -71 73 86 94 101 57 55 vhcurveto
            -14 30 rlineto
            return
          </CharString>
          <CharString index="159">
            232 88 hstem
            0 return
          </CharString>
          <CharString index="160">
            2 -2 rlineto
            return
          </CharString>
          <CharString index="161">
            -93 rlineto
            37 147 rmoveto
            -132 hlineto
            -1 1 129 return
          </CharString>
          <CharString index="162">
            -2 2 rlineto
            return
          </CharString>
          <CharString index="163">
            -31 -221 -21 242 -21 398 -20 26 -20 return
          </CharString>
          <CharString index="164">
            -20 323 -20 hstemhm
            -56 799 -121 121 return
          </CharString>
          <CharString index="165">
            -121 -15 101 return
          </CharString>
          <CharString index="166">
            -5 vhcurveto
            -27 2 hlineto
            68 26 74 14 73 7 return
          </CharString>
          <CharString index="167">
            113 327 hstemhm
            return
          </CharString>
          <CharString index="168">
            90 -5 205 -3 -129 vvcurveto
            -88 -73 return
          </CharString>
          <CharString index="169">
            -321 -7 6 return
          </CharString>
          <CharString index="170">
            27 -61 43 -12 return
          </CharString>
          <CharString index="171">
            -82 -139 rlineto
            return
          </CharString>
          <CharString index="172">
            -2 2 rcurveline
            return
          </CharString>
          <CharString index="173">
            61 -16 114 -93 -21 389 -20 return
          </CharString>
          <CharString index="174">
            313 -15 133 435 133 return
          </CharString>
          <CharString index="175">
            34 -27 30 -35 -36 -22 -87 -35 vhcurveto
            return
          </CharString>
          <CharString index="176">
            245 -226 88 676 150 return
          </CharString>
          <CharString index="177">
            182 -8 22 86 -187 -8 return
          </CharString>
          <CharString index="178">
            hstemhm
            48 844 -396 141 return
          </CharString>
          <CharString index="179">
            0 147 -136 -21 103 54 return
          </CharString>
          <CharString index="180">
            -19 -131 88 661 88 hstem
            return
          </CharString>
          <CharString index="181">
            150 129 return
          </CharString>
          <CharString index="182">
            hstem
            -12 74 return
          </CharString>
          <CharString index="183">
            5 5 5 return
          </CharString>
          <CharString index="184">
            110 94 return
          </CharString>
        <CharString name=".notdef">
          230 0 50 600 50 hstem
          129 hmoveto
          500 700 -500 hlineto
          250 -305 rmoveto
          -170 255 rlineto
          340 hlineto
          -140 -300 rmoveto
          170 255 rlineto
          -510 vlineto
          -370 -45 rmoveto
          170 255 170 -255 rlineto
          -370 555 rmoveto
          170 -255 -170 -255 rlineto
          endchar
        </CharString>
        <CharString name="A">
          -44 callsubr
          hstemhm
          -73 895 -67 callsubr
          endchar
        </CharString>
        <CharString name="AE">
          882 -59 133 -62 3 callsubr
          -110 120.5 -6.5 20.5 211 133 -26 -20 hstemhm
          -73 1401 -918 134 hintmask 0100101100000000
          hintmask 0100110100000000
          1325 683 rmoveto
          33 -15 -94 -5 -32 hhcurveto
          -135 -121 -20 -73 -111 hvcurveto
          55 callsubr
          hintmask 0110001100000000
          46 17 -27 19 -18 hhcurveto
          -45 -120 -91 -81 -98 hvcurveto
          -20 callsubr
          hintmask 0100101100000000
          -91 callsubr
          hintmask 0110001010000000
          -42 callsubr
          49 56 45 28 37 vhcurveto
          hintmask 1000110100000000
          -3 -28 63 callsubr
          29 callsubr
          121 -3 153 37 95 80 -89 callsubr
          -2 -10 vhcurveto
          -321 -6 9 callsubr
          rrcurveto
          hintmask 0100110100000000
          -2 42 rlineto
          -922 -344 rmoveto
          287 238 53 callsubr
          hintmask 0110001100000000
          -135 -227 -152 -11 rlineto
          hintmask 0100110100000000
          55 callsubr
          309 95 rmoveto
          26 -44 38 -14 50 -12 158 -22 rcurveline
          -2 vlineto
          hintmask 0101001010000000
          -144 -28 -168 -64 -53 -120 -8 -7 rcurveline
          -11 -12 -25 -18 -17 hhcurveto
          -18 -3 10 64 33 hvcurveto
          34 65 52 3 18 40 22 37 28 34 rlinecurve
          -16 13 -2 -2 -39 -3 rrcurveto
          hintmask 0100110100000000
          46 81 rlineto
          endchar
        </CharString>
        <CharString name="Aacute">
          -44 callsubr
          73 88 hstemhm
          -73 965 -100 callsubr
          hintmask 10101110
          173 572 -107 callsubr
        </CharString>
        <CharString name="Acircumflex">
          -44 callsubr
          105 60 hstemhm
          -73 1005 -100 callsubr
          hintmask 10101110
          142 523 -106 callsubr
        </CharString>
        <CharString name="Adieresis">
          -44 callsubr
          hstemhm
          -73 989 -67 callsubr
          60 508 -105 callsubr
        </CharString>
        <CharString name="Agrave">
          -44 callsubr
          96 84 hstemhm
          -73 895 -100 callsubr
          hintmask 10101110
          10 609 -102 callsubr
        </CharString>
        <CharString name="Aring">
          -44 callsubr
          41 33 hstemhm
          759 50 49 62 hintmask 10101011
          hintmask 11001011
          -58 callsubr
          hintmask 10011011
          -72 callsubr
          hintmask 11001011
          -20 callsubr
          hintmask 10101011
          -91 callsubr
          hintmask 11001011
          -82 callsubr
          hintmask 10101111
          270 638 -36 callsubr
        </CharString>
        <CharString name="Atilde">
          -44 callsubr
          57 88 hstemhm
          -73 930 -224 224 -100 callsubr
          hintmask 10101101
          67 580 -94 callsubr
        </CharString>
        <CharString name="B">
          311 -11 113 476 113 hstem
          97 113 338 113 36 88 vstem
          345 325 rmoveto
          20 18 rlineto
          117 23 303 41 162 vvcurveto
          54 -41 68 -172 -104 -187 -39 -37 -97 vhcurveto
          -34 -13 -29 -38 -21 -28 rrcurveto
          -31 -41 -15 -36 -7 vvcurveto
          -17 8 -10 17 11 11 4 3 9 vhcurveto
          58 19 19 9 62 10 rrcurveto
          13 2 23 6 15 vvcurveto
          8 -8 4 -6 3 vhcurveto
          152 55 106 13 23 2 116 8 28 -35 1 -22 2 -27 -53 -68 -226 -31 83 97 7 13 7 17 rrcurveto
          -100 -66 -84 -63 -65 hvcurveto
          -30 -9 -140 -2 -43 vvcurveto
          -34 64 -3 28 -2 vhcurveto
          -116 -153 5 -5 -32 vvcurveto
          -91 100 -24 72 4 vhcurveto
          269 15 123 135 57 vvcurveto
          96 -245 20 -71 13 vhcurveto
          -44 -50 rmoveto
          41 206 -15 -52 -40 -138 -65 -89 -1 hvcurveto
          -32 -79 12 43 21 22 22 13 14 hvcurveto
          56 61 rlineto
          endchar
        </CharString>
        <CharString name="C">
          316 -131 101 426 -20 247 73 hstem
          -9 150 504 88 vstem
          -11 callsubr
          -115 80 -69 111 94 166 60 188 195 vhcurveto
          38 36 16 14 -3 51 rrcurveto
          -16 callsubr
          -74 -65 rlineto
          endchar
        </CharString>
        <CharString name="Ccedilla">
          316 -279 36 69 19 24 101 426 -20 247 73 hstemhm
          -9 150 107 88 309 88 hintmask 11011111
          -11 callsubr
          hintmask 11111111
          -115 80 -69 111 10 11 1 2 11 vhcurveto
          hintmask 11011111
          -23 -46 -24 callsubr
          18 36 96 24 133 69 148 143 rlinecurve
          38 36 16 14 -3 51 rrcurveto
          hintmask 11111111
          -16 callsubr
          hintmask 11011111
          -74 -65 rlineto
          endchar
        </CharString>
        <CharString name="D">
          405 -11 113 327 68 53 150 hstem
          88 112 574 73 vstem
          446 476 rmoveto
          20 26 5 16 8 32 rrcurveto
          61 callsubr
          -106 -210 -74 vhcurveto
          -70 -24 -91 -20 -69 1 -41 1 -12 11 -4 6 -6 13 -4 14 31 41 221 288 rcurveline
          -262 -228 rmoveto
          -44 -55 -52 -66 -6 callsubr
          -141 -29 -41 -95 hvcurveto
          -49 -22 -33 -22 -13 31 callsubr
          15 -49 -4 59 callsubr
          -239 -298 rcurveline
          endchar
        </CharString>
        <CharString name="E">
          -65 callsubr
          endchar
        </CharString>
        <CharString name="Eacute">
          5 callsubr
          50 88 -61 callsubr
          -220 186 -107 callsubr
        </CharString>
        <CharString name="Ecircumflex">
          5 callsubr
          82 60 38 callsubr
          hintmask 11100100
          -39 callsubr
          hintmask 11101000
          -90 callsubr
          hintmask 11100100
          -59 callsubr
          hintmask 11110100
          -251 137 -106 callsubr
        </CharString>
        <CharString name="Edieresis">
          -65 callsubr
          -283 122 -105 callsubr
        </CharString>
        <CharString name="Egrave">
          5 callsubr
          63 84 -61 callsubr
          -333 213 -102 callsubr
        </CharString>
        <CharString name="Eth">
          405 -11 113 192 56 79 68 53 150 hstem
          88 113 573 73 vstem
          303 291 rmoveto
          3 43 53 0 49 hhcurveto
          22 12 9 16 hvcurveto
          22 -1 -21 9 -58 hhcurveto
          -12 -15 -1 -1 -27 hvcurveto
          98 128 20 26 5 16 8 32 rlinecurve
          61 callsubr
          -105 -210 -75 vhcurveto
          -25 -70 -91 -18 -69 hhcurveto
          -42 -18 13 18 24 9 11 15 20 hvcurveto
          78 103 rlineto
          -39 57 rmoveto
          -40 -2 -44 -5 -41 -7 rrcurveto
          -26 -5 -12 -43 -9 vvcurveto
          -6 2 -3 4 vhcurveto
          7 62 17 35 hhcurveto
          2 -2 -29 -35 rlineto
          -45 -54 -51 -67 -6 callsubr
          -142 -28 -42 -94 hvcurveto
          -49 -22 -34 -22 -12 31 callsubr
          11 -49 0 59 callsubr
          -159 -198 rcurveline
          endchar
        </CharString>
        <CharString name="Euro">
          -13 94 130 80 57 80 126 95 hstem
          119 107 vstem
          641 611 rmoveto
          16 -21 -55 22 -76 hhcurveto
          -159 -101 -94 -127 -57 hvcurveto
          -48 hlineto
          -50 -80 rlineto
          71 hlineto
          -3 -7 -3 -9 -3 -11 -3 -12 -2 -11 -1 -7 rrcurveto
          -40 hlineto
          -50 -80 rlineto
          79 hlineto
          -153 -11 76 -71 139 hhcurveto
          85 62 21 15 24 hvcurveto
          27 106 rlineto
          -25 -35 -53 -23 -72 hhcurveto
          -95 -45 48 82 5 hvcurveto
          198 hlineto
          50 80 rlineto
          -240 hlineto
          1 7 3 13 3 11 2 10 3 9 2 7 rrcurveto
          262 hlineto
          50 80 rlineto
          -279 hlineto
          77 33 66 49 97 hhcurveto
          74 44 -24 -23 20 hvcurveto
          endchar
        </CharString>
        <CharString name="F">
          296 377 73 103 133 hstemhm
          47 727 -126 126 hintmask 11100000
          535 171 rmoveto
          23 5 37 4 22 10 13 6 6 13 8 13 40 64 rcurveline
          -67 11 rlineto
          hintmask 11010000
          45 66 112 196 74 vvcurveto
          49 -67 4 -36 -59 -75 -3 -60 -262 vhcurveto
          -58 -13 -54 -11 -39 -49 rrcurveto
          -20 -24 -57 -100 -29 vvcurveto
          -18 9 -12 68 21 vhcurveto
          116 36 rlineto
          8 2 22 3 12 vvcurveto
          10 -12 -1 -7 vhcurveto
          -52 -1 -2 2 106 46 115 29 115 19 rlinecurve
          12 76 5 -4 2 hhcurveto
          17 15 1 -20 -49 -81 -138 -33 -44 hvcurveto
          -153 -29 -38 -7 -66 -21 -31 -20 rlinecurve
          -26 -17 -4 -24 4 -28 2 -14 42 0 7 1 149 12 rcurveline
          -117 -124 -44 -12 -29 -16 -31 -35 rlinecurve
          -19 -20 -42 -52 -28 vvcurveto
          -14 10 -11 14 46 122 111 36 34 vhcurveto
          hintmask 11100000
          171 180 rlineto
          endchar
        </CharString>
        <CharString name="G">
          298 -244 -21 312 73 567 -20 hstem
          31 88 vstem
          451 230 24 callsubr
          -41 -88 -58 -81 -61 -78 rlinecurve
          -98 -48 -89 -89 3 -67 rrcurveto
          -22 1 11 -20 25 hhcurveto
          68 151 164 56 41 hvcurveto
          161 109 136 92 -7 8 2 44 rlinecurve
          -220 -142 -2 2 77 121 63 87 43 87 rlinecurve
          4 8 10 17 10 vvcurveto
          13 -14 8 -11 6 vhcurveto
          5 -8 -20 12 -9 hhcurveto
          -9 -8 -7 -6 -6 hvcurveto
          -366 -278 rlineto
          -13 -17 -30 -18 -21 hhcurveto
          -22 -8 17 21 -5 hvcurveto
          -11 50 178 244 299 88 34 callsubr
          -42 -34 rlineto
          -7 -5 -20 -14 -10 vvcurveto
          -8 5 -6 8 9 20 1 90 138 vhcurveto
          20 13 21 15 26 vvcurveto
          19 -7 30 -11 15 vhcurveto
          -11 15 -11 4 -19 -2 -276 -31 -181 -141 -69 -76 rrcurveto
          -58 -60 -65 -106 -86 vvcurveto
          -70 33 -61 79 -9 vhcurveto
          57 -7 90 72 50 37 111 81 rcurveline
          endchar
        </CharString>
        <CharString name="H">
          502 138 110 -74 152 264 101 hstemhm
          531 116 13 101 hintmask 01101000
          hintmask 01111000
          589 174 rmoveto
          -37 -70 -16 -46 -5 -30 -5 -30 6 -14 17 -6 26 -9 51 49 32 -7 rrcurveto
          -4 19 -7 23 18 vvcurveto
          30 37 47 15 26 vhcurveto
          41 3 31 -3 30 -7 32 52 41 45 47 37 -41 25 -49 -1 -46 1 108 133 rcurveline
          75 92 7 19 32 vvcurveto
          11 -4 12 -13 -21 -42 -56 -16 -12 vhcurveto
          -181 -227 -154 -18 rlineto
          hintmask 10101000
          113 120 rlineto
          40 43 60 60 62 vvcurveto
          49 -25 49 -83 -86 -126 -24 -27 -83 vhcurveto
          -57 -18 -167 -55 -36 -41 rrcurveto
          -18 -24 -16 -57 -29 vvcurveto
          -18 7 -28 23 14 14 8 6 12 vhcurveto
          69 35 -7 1 75 26 rrcurveto
          12 4 13 6 14 vvcurveto
          9 -7 3 -7 3 vhcurveto
          68 164 126 37 53 hhcurveto
          12 23 -4 -18 -20 -29 -35 -13 -14 hvcurveto
          -88 -100 -72 -78 -38 -37 rrcurveto
          -29 -152 -1 -7 -11 -8 -8 7 -7 hhcurveto
          -27 -29 -53 -23 -34 32 -13 70 6 hvcurveto
          -14 -27 -71 -69 -28 vvcurveto
          -23 27 -20 22 24 22 40 17 12 vhcurveto
          104 122 rlineto
          hintmask 01111000
          184 24 rlineto
          endchar
        </CharString>
        <CharString name="I">
          -46 callsubr
          endchar
        </CharString>
        <CharString name="Iacute">
          15 callsubr
          45 88 -80 callsubr
          240 430 -107 callsubr
        </CharString>
        <CharString name="Icircumflex">
          15 callsubr
          77 60 -80 callsubr
          209 381 -106 callsubr
        </CharString>
        <CharString name="Idieresis">
          -46 callsubr
          159 366 -105 callsubr
        </CharString>
        <CharString name="Igrave">
          15 callsubr
          68 84 -80 callsubr
          109 467 -102 callsubr
        </CharString>
        <CharString name="J">
          145 -228 -21 942 -20 hstem
          510 88 vstem
          345 94 rmoveto
          177 84 -13 32 -116 -51 55 callsubr
          180 303 27 101 64 vvcurveto
          22 -35 42 -37 -71 -197 -66 -198 -105 vhcurveto
          -32 -60 -38 -95 -68 vvcurveto
          -28 1 -47 38 41 46 56 28 25 vhcurveto
          9 10 40 39 12 vvcurveto
          5 -4 3 -5 -3 -8 -5 -35 -57 vhcurveto
          29 154 125 156 150 51 -12 -92 -35 -87 -47 -79 -143 -240 rcurveline
          -233 -137 -73 -102 -70 vvcurveto
          -21 15 -26 24 39 72 79 29 25 vhcurveto
          203 235 rlineto
          endchar
        </CharString>
        <CharString name="K">
          441 11 -21 661 -20 59 -20 hstem
          71 886 vstem
          151 57 rmoveto
          -11 -14 -10 -13 -18 vvcurveto
          -15 14 -7 13 40 83 68 48 -1 vhcurveto
          80 96 395 -217 rlineto
          -6 10 28 -16 12 hhcurveto
          21 4 34 15 57 -47 31 -45 26 hvcurveto
          -253 147 rlineto
          -15 9 -31 12 21 vvcurveto
          17 9 10 14 10 vhcurveto
          367 183 rlineto
          68 -19 61 107 13 vvcurveto
          11 -7 8 -12 -11 -38 -18 -5 -11 vhcurveto
          -319 -151 -2 2 51 74 rlineto
          10 15 15 20 18 vvcurveto
          19 -18 23 -11 14 vhcurveto
          -16 19 -5 7 -26 -2 -153 -8 -150 -74 -51 -18 65 callsubr
          49 42 -3 -2 8 vvcurveto
          6 -3 5 -7 -11 -11 -9 -6 -9 vhcurveto
          -55 -41 -33 -25 -9 -2 -13 -39 rlinecurve
          -7 -20 -18 -54 -20 vvcurveto
          -19 12 -11 19 19 22 11 8 16 vhcurveto
          157 77 66 35 167 40 -97 -152 rcurveline
          -106 -55 rlineto
          -31 -16 -32 -22 -40 vvcurveto
          -18 7 -10 10 -14 vhcurveto
          -149 -192 rlineto
          endchar
        </CharString>
        <CharString name="L">
          301 16 -21 402 57 callsubr
          hintmask 11110000
          26 callsubr
          200 229 rcurveline
          hintmask 11101000
          127 111 43 -15 callsubr
          -291 -346 18 callsubr
          hintmask 11110000
          22 10 rlineto
          endchar
        </CharString>
        <CharString name="Lslash">
          301 16 -21 246 56 100 57 callsubr
          hintmask 11111000
          26 callsubr
          64 73 rcurveline
          16 2 61 4 12 2 18 -2 12 3 rlinecurve
          12 4 10 9 -4 14 -7 27 -51 0 -26 -3 83 96 rcurveline
          hintmask 11110100
          127 110 44 -15 callsubr
          -186 -222 -53 -10 -58 -11 -7 -17 -16 -53 rlinecurve
          26 12 27 12 27 6 34 callsubr
          -53 -61 18 callsubr
          hintmask 11111000
          22 10 rlineto
          endchar
        </CharString>
        <CharString name="M">
          744 -44 101 -48 -21 695 -20 43 -20 hstemhm
          424 101 185 150 -104 133 hintmask 01011010
          468 156 rmoveto
          -16 -21 -24 -30 -28 vvcurveto
          -29 14 -72 39 25 48 57 19 15 vhcurveto
          157 199 55 45 170 144 34 callsubr
          -70 -91 -127 -150 -120 vvcurveto
          hintmask 10011010
          -58 22 -63 66 86 215 170 69 24 vhcurveto
          -4 38 rlineto
          -131 -135 -78 -45 -28 hhcurveto
          -24 -11 29 20 76 69 95 46 56 hvcurveto
          155 189 rlineto
          12 15 31 35 20 vvcurveto
          21 -42 65 -27 -18 -20 -21 -11 -13 vhcurveto
          -131 -104 -115 -109 -123 -106 65 callsubr
          hintmask 01101100
          41 63 108 148 74 vvcurveto
          52 -51 18 -22 -1 vhcurveto
          -41 -1 -85 -75 -37 -35 -159 -154 rcurveline
          55 callsubr
          11 37 51 104 33 vvcurveto
          hintmask 01011100
          15 -5 10 -7 13 vhcurveto
          -24 42 -10 17 -4 14 -24 1 rlinecurve
          -36 2 -141 -67 -12 -5 -113 -52 rcurveline
          55 callsubr
          39 34 14 18 6 vvcurveto
          6 -7 4 -5 -7 -13 -10 -4 -5 vhcurveto
          -89 -63 6 2 -9 -12 -8 -9 -8 -55 -10 -54 rrcurveto
          -24 -5 13 -13 16 hhcurveto
          51 -48 2 144 308 hvcurveto
          4 8 15 8 8 hhcurveto
          17 18 -20 -188 -105 hvcurveto
          -209 -264 rlineto
          -31 11 20 -79 42 hhcurveto
          32 25 38 23 17 hvcurveto
          150 202 240 260 rlineto
          8 7 12 13 12 hhcurveto
          11 4 -11 -32 -17 hvcurveto
          -34 -66 -34 -55 -94 -123 rrcurveto
          hintmask 01011010
          -68 -89 rlineto
          endchar
        </CharString>
        <CharString name="N">
          437 10 -21 709 -20 71 callsubr
          hintmask 11100000
          hintmask 11010000
          -71 callsubr
          endchar
        </CharString>
        <CharString name="Ntilde">
          437 10 -21 709 -20 44 88 71 callsubr
          -79 224 hintmask 11010000
          hintmask 11001000
          -71 callsubr
          hintmask 11100100
          46 619 -94 callsubr
        </CharString>
        <CharString name="O">
          -50 callsubr
          endchar
        </CharString>
        <CharString name="OE">
          761 -59 133 -62 73 435 50 8 133 -7 -20 hstemhm
          47 101 343 113 -4 113 hintmask 01101101
          hintmask 01110101
          1216 683 rmoveto
          -15 33 -94 -4 -32 -1 -76 -1 -91 -6 -73 -24 rrcurveto
          hintmask 01101110
          -56 -18 -74 -26 -60 -74 rrcurveto
          5 -15 -10 3 -16 hhcurveto
          -38 -4 -2 2 14 6 15 9 16 6 rlinecurve
          -54 callsubr
          -47 79 -2 96 -2 106 52 80 74 34 callsubr
          -8 -18 -10 -21 -19 vvcurveto
          hintmask 10101110
          -1 -40 28 -61 43 -12 29 callsubr
          121 -3 153 37 95 80 -89 callsubr
          -1 -10 vhcurveto
          hintmask 01110101
          -321 -7 9 callsubr
          -2 42 rcurveline
          -912 -316 rmoveto
          hintmask 01101101
          71 47 121 82 88 hhcurveto
          26 15 -24 -24 -1 hvcurveto
          -3 -73 -77 -62 callsubr
          hintmask 01110101
          22 callsubr
          285 -143 rmoveto
          31 44 39 54 10 58 41 -19 45 -5 45 -4 74 -6 rcurveline
          -2 vlineto
          -101 -30 -94 -20 -91 -74 65 callsubr
          3 2 rlineto
          endchar
        </CharString>
        <CharString name="Oacute">
          6 callsubr
          71 88 -99 callsubr
          265 452 -107 callsubr
        </CharString>
        <CharString name="Ocircumflex">
          6 callsubr
          103 60 -99 callsubr
          214 403 -106 callsubr
        </CharString>
        <CharString name="Odieresis">
          -50 callsubr
          167 388 -105 callsubr
        </CharString>
        <CharString name="Ograve">
          6 callsubr
          94 84 -99 callsubr
          117 489 -102 callsubr
        </CharString>
        <CharString name="Omega">
          -38 callsubr
        </CharString>
        <CharString name="Oslash">
          240 -4 73 435 50 133 -20 hstem
          35 101 vstem
          20 11 rmoveto
          -18 -16 -23 -20 -25 vvcurveto
          -24 20 -20 24 25 5 22 19 9 vhcurveto
          12 27 29 23 24 23 28 -16 32 -10 46 2 104 6 108 63 76 73 74 72 79 130 1 102 rrcurveto
          16 2 14 -6 16 vhcurveto
          157 92 rlineto
          14 -13 -19 25 -20 hhcurveto
          -32 -73 -64 -15 -26 hvcurveto
          -2 callsubr
          14 8 14 8 16 6 rrcurveto
          -28 callsubr
          -335 -245 13 -216 3 -47 12 -45 21 -37 -51 -59 rcurveline
          116 117 rmoveto
          -2 87 57 80 55 56 rrcurveto
          -9 3 -1 -19 13 hhcurveto
          22 callsubr
          47 71 122 82 88 1 6 -2 8 3 10 -11 -437 -366 rcurveline
          443 296 24 callsubr
          -10 -28 -12 -30 -14 -28 rlinecurve
          -44 -62 -40 -52 -62 -54 rrcurveto
          -44 -40 -112 -55 -38 hhcurveto
          -14 -13 -2 3 -10 hvcurveto
          407 354 rlineto
          endchar
        </CharString>
        <CharString name="Otilde">
          6 callsubr
          65 88 hstemhm
          35 101 261 224 -34 88 hintmask 11111010
          -104 callsubr
          hintmask 11111100
          143 470 -94 callsubr
        </CharString>
        <CharString name="P">
          343 161 113 290 133 hstem
          46 745 vstem
          212 166 rmoveto
          320 -36 259 150 213 vvcurveto
          124 -69 80 -248 -90 -92 -10 -25 -87 vhcurveto
          -28 -8 -30 -8 -18 -25 rrcurveto
          -16 -22 -58 -77 -24 vvcurveto
          -9 10 -1 6 30 139 64 3 175 vhcurveto
          -159 -210 rlineto
          -42 -13 -118 -27 -58 vvcurveto
          -31 21 -18 24 -15 vhcurveto
          -24 -42 -71 -109 -44 vvcurveto
          -22 10 -14 24 25 21 29 18 13 vhcurveto
          26 35 25 33 13 vvcurveto
          11 -10 5 -9 2 vhcurveto
          41 68 rlineto
          239 337 rmoveto
          15 21 6 13 1 27 rrcurveto
          46 188 -12 -61 11 hvcurveto
          11 -63 -129 -143 -196 -11 -32 -2 -34 2 -37 10 22 33 rcurveline
          16 11 85 5 20 vvcurveto
          19 -41 -14 -37 vhcurveto
          105 145 rlineto
          endchar
        </CharString>
        <CharString name="Q">
          284 -38 136 -96 -21 356 95 144 113 hstemhm
          128 224 291 88 hintmask 01110100
          hintmask 10111100
          462 -28 rmoveto
          95 -15 45 1 15 27 12 21 23 40 20 65 rrcurveto
          -4 -30 -29 -9 -30 hhcurveto
          -45 -56 10 35 -177 hvcurveto
          121 79 305 182 159 vvcurveto
          73 -53 53 -71 -130 -287 -121 -70 -53 vhcurveto
          -14 -19 4 -23 1 -40 rrcurveto
          -83 8 -4 38 15 vhcurveto
          48 25 56 21 54 10 rrcurveto
          9 2 11 3 12 vvcurveto
          25 -21 -10 -75 vhcurveto
          2 vlineto
          90 124 182 52 39 hhcurveto
          15 27 -3 -19 -56 -142 -176 -317 -167 hvcurveto
          -45 -32 7 -16 -23 hvcurveto
          hintmask 01110100
          -32 -22 -33 -69 -52 vvcurveto
          -17 9 -5 15 29 33 28 15 23 vhcurveto
          hintmask 10111100
          334 -52 rlineto
          endchar
        </CharString>
        <CharString name="R">
          406 447 28 68.5 139.5 -133 133 hstemhm
          783 73 hintmask 11010000
          433 451 rmoveto
          18 28 18 23 -1 35 rrcurveto
          hintmask 10110000
          185 13 rlineto
          22 2 108 -1 -31 vvcurveto
          -49 -134 -57 -41 -11 vhcurveto
          -249 -65 rlineto
          hintmask 11010000
          74 113 rlineto
          167 -439 rmoveto
          -10 27 71 -35 26 hhcurveto
          34 -4 75 35 -19 hvcurveto
          -5 8 4 26 -172 55 -270 86 rcurveline
          2 vlineto
          360 67 50 -1 82 66 rrcurveto
          40 32 32 77 51 vvcurveto
          128 -195 9 -92 -202 -216 -53 -56 -47 vhcurveto
          -20 -25 -31 -64 -32 vvcurveto
          -19 21 -5 15 29 36 7 3 28 vhcurveto
          78 8 rlineto
          5 14 3 8 15 -20 -4 -63 6 hvcurveto
          2 vlineto
          68 27 74 13 73 12 -148 -214 rcurveline
          -93 -3 -52 -48 -9 -52 -4 -20 36 -13 16 -4 -93 -153 rcurveline
          -10 -16 -7 -14 -19 vvcurveto
          -13 11 -8 12 27 59 37 35 -12 vhcurveto
          86 125 370 -137 rlineto
          endchar
        </CharString>
        <CharString name="S">
          67 callsubr
          hstem
          145 101 326 88 vstem
          -55 callsubr
          endchar
        </CharString>
        <CharString name="Scaron">
          67 callsubr
          20 60 hstemhm
          145 101 326 88 hintmask 11011000
          -55 callsubr
          hintmask 11111000
          290 355 -86 callsubr
        </CharString>
        <CharString name="T">
          278 422 41 79 150 hstem
          58 694 vstem
          161 428 rmoveto
          40 1 40 -17 21 vvcurveto
          20 -66 7 -14 3 vhcurveto
          2 vlineto
          164 51 170 23 172 3 -100 -128 rcurveline
          -65 -83 -184 -233 -99 vvcurveto
          -28 29 -14 25 31 40 59 23 18 vhcurveto
          12 15 30 36 20 vvcurveto
          15 -13 3 -10 -4 vhcurveto
          -2 2 235 356 14 22 32 37 -9 24 rlinecurve
          -26 69 5 31 -62 14 rrcurveto
          11 -49 -52 2 -50 hhcurveto
          -124 -136 -14 -52 -114 hvcurveto
          -65 -29 2 -20 -12 -65 rrcurveto
          -3 -17 -6 -25 -16 vvcurveto
          -27 22 0 23 vhcurveto
          58 1 rlineto
          endchar
        </CharString>
        <CharString name="Thorn">
          213 125 107 234 128 112 -20 hstem
          664 80 vstem
          220 292 rmoveto
          -85 -75 -46 -49 -21 22 -24 37 -7 hvcurveto
          -38 -65 rlineto
          -15 -26 -20 -43 -23 vvcurveto
          -20 11 -16 17 37 50 67 23 11 -8 6 -10 vhcurveto
          43 72 rlineto
          -2 16 30 -4 41 hhcurveto
          299 172 157 108 108 -123 73 -97 13 hvcurveto
          43 57 rlineto
          18 24 4 11 13 vvcurveto
          9 -9 8 -9 -22 -20 -13 -32 -23 vhcurveto
          -49 -69 rlineto
          1 -15 -17 1 -44 hhcurveto
          -43 -199 -22 -18 -22 hvcurveto
          -9 -8 -71 -103 -16 vvcurveto
          -9 3 -5 9 17 108 45 10 184 vhcurveto
          -138 -176 rlineto
          218 174 rmoveto
          117 -7 109 -13 -64 vvcurveto
          -40 -150 -110 -168 -44 -24 3 5 -16 vhcurveto
          176 226 rlineto
          endchar
        </CharString>
        <CharString name="U">
          -75 callsubr
          endchar
        </CharString>
        <CharString name="Uacute">
          20 callsubr
          62 88 hstemhm
          145 144 242 118 -74 28 hintmask 01110010
          hintmask 10111100
          -93 callsubr
          hintmask 01111010
          -95 callsubr
          hintmask 10111100
          64 callsubr
          hintmask 01110010
          141 595 -107 callsubr
        </CharString>
        <CharString name="Ucircumflex">
          20 callsubr
          94 60 hstemhm
          145 144 223 91 -72 118 hintmask 01111100
          hintmask 10111010
          -93 callsubr
          hintmask 01111100
          -95 callsubr
          hintmask 10111010
          64 callsubr
          hintmask 01111100
          60 546 -106 callsubr
        </CharString>
        <CharString name="Udieresis">
          -75 callsubr
          60 531 -105 callsubr
        </CharString>
        <CharString name="Ugrave">
          20 callsubr
          85 84 25 callsubr
          hintmask 01111000
          hintmask 10110101
          -93 callsubr
          hintmask 01110110
          -95 callsubr
          hintmask 10110101
          64 callsubr
          hintmask 01111000
          -21 632 -102 callsubr
        </CharString>
        <CharString name="V">
          300 393 -20 318 -20 hstem
          241 101 vstem
          189 390 rmoveto
          -2 2 77 67 92 44 90 43 rlinecurve
          2 -2 -190 -314 -16 -86 -1 -40 rlinecurve
          -75 -2 75 -63 40 hhcurveto
          54 93 132 42 32 hvcurveto
          255 334 20 124 -44 15 -31 11 -93 -120 11 -63 -209 -331 -47 -25 -27 -9 -22 -7 -6 41 2 24 2 29 34 89 179 285 rrcurveto
          11 17 27 39 20 vvcurveto
          14 -31 65 -36 -1 vhcurveto
          -72 -2 -300 -153 -54 -50 rrcurveto
          -35 -32 -16 -49 -47 vvcurveto
          -12 3 -41 19 16 61 40 18 91 vhcurveto
          8 2 36 3 15 vvcurveto
          15 -32 -5 -8 vhcurveto
          -56 -3 rlineto
          endchar
        </CharString>
        <CharString name="W">
          579 4 -21 24 -21 567 133 hstemhm
          149 135 188 101 -44 88 339 101 hintmask 01110110
          585 296 rmoveto
          53 callsubr
          -20 -57 -38 -90 -62 vvcurveto
          -58 74 -46 35 5 vhcurveto
          124 18 286 348 9 221 rrcurveto
          14 1 -7 39 -20 hhcurveto
          -15 -60 -69 -34 -13 1 -12 4 -12 hvcurveto
          -90 -195 -153 -149 -87 -41 -7 -3 -8 9 1 9 -1 60 180 269 43 60 rrcurveto
          8 11 26 37 14 vvcurveto
          16 -16 49 -28 -51 -41 -69 -24 -22 vhcurveto
          -239 -271 -169 -146 -12 5 -9 3 -12 8 22 26 rrcurveto
          hintmask 10111010
          270 312 7 49 33 vvcurveto
          27 -15 52 -16 22 vhcurveto
          26 -20 -30 1 -30 hhcurveto
          -91 -1 -82 -35 -82 -29 65 callsubr
          28 32 rlineto
          16 10 -8 4 -4 hhcurveto
          -8 -9 -6 -5 -5 hvcurveto
          -69 -54 -28 -22 -18 -10 -14 -32 rlinecurve
          -116 -52 36 -14 11 hhcurveto
          22 27 13 11 18 hvcurveto
          32 53 185 81 57 hhcurveto
          17 18 -6 -19 -18 -20 -18 -11 -13 hvcurveto
          -311 -341 25 -6 -6 -28 rrcurveto
          -34 -6 53 -87 40 hhcurveto
          hintmask 10110110
          46 58 49 113 105 hvcurveto
          hintmask 01110110
          140 151 rlineto
          endchar
        </CharString>
        <CharString name="X">
          289 -32 113 320 63 182 -20 58 -20 hstemhm
          412 109 -93 127 hintmask 11110100
          549 462 rmoveto
          12 124 rlineto
          60 6 -2 38 -71 hhcurveto
          -103 -200 -60 -69 -79 hvcurveto
          -22 -19 -44 -90 -27 vvcurveto
          -25 31 6 15 5 vhcurveto
          103 33 32 2 12 vvcurveto
          12 -17 -4 -56 4 vhcurveto
          2 vlineto
          88 48 97 28 94 32 -10 -226 rcurveline
          -192 -182 rlineto
          -59 -12 -107 -89 -60 vvcurveto
          -17 10 -12 17 10 27 5 92 97 vhcurveto
          hintmask 11111000
          190 179 -8 -152 rlineto
          -44 -2 -8 -88 64 hhcurveto
          67 111 98 52 41 hvcurveto
          -18 26 rlineto
          -18 -29 -53 -45 -36 hhcurveto
          -35 9 33 25 2 hvcurveto
          20 233 151 145 rlineto
          42 -5 44 79 34 vvcurveto
          12 -4 9 -14 -16 -21 -21 -10 -11 vhcurveto
          hintmask 11110100
          -163 -153 rlineto
          endchar
        </CharString>
        <CharString name="Y">
          36 callsubr
          hstem
          47 744 -97 callsubr
          endchar
        </CharString>
        <CharString name="Yacute">
          36 callsubr
          65 88 hstem
          47 746 -97 callsubr
          80 470 -107 callsubr
        </CharString>
        <CharString name="Ydieresis">
          36 callsubr
          hstem
          47 770 -97 callsubr
          -33 406 -105 callsubr
        </CharString>
        <CharString name="Z">
          69 callsubr
          hstem
          54 111 421 113 vstem
          -63 callsubr
          endchar
        </CharString>
        <CharString name="Zcaron">
          69 callsubr
          18 60 hstemhm
          54 111 421 113 hintmask 11011000
          -63 callsubr
          hintmask 11111000
          37 663 -86 callsubr
        </CharString>
        <CharString name="a">
          -49 callsubr
          endchar
        </CharString>
        <CharString name="a.superior">
          -57 callsubr
        </CharString>
        <CharString name="aacute">
          -1 callsubr
          81 88 -85 callsubr
          76 358 -107 callsubr
        </CharString>
        <CharString name="acircumflex">
          -1 callsubr
          113 60 -85 callsubr
          -5 309 -106 callsubr
        </CharString>
        <CharString name="acute">
          -49 436 88 hstem
          113 264 vstem
          262 500 -107 callsubr
        </CharString>
        <CharString name="adieresis">
          -49 callsubr
          -37 304 -105 callsubr
        </CharString>
        <CharString name="ae">
          229 -16 88 -70 79 298 -20 hstemhm
          -22 73 211 101 153 88 hintmask 10111100
          hintmask 01111100
          117 103 rmoveto
          -8 -11 -20 -14 -14 hhcurveto
          -14 -7 6 12 56 39 26 44 27 hvcurveto
          57 35 63 20 62 17 34 callsubr
          -47 -55 -52 -50 -61 -42 -41 -28 rcurveline
          254 91 42 callsubr
          -306 -192 rmoveto
          29 137 121 21 31 hvcurveto
          hintmask 10111100
          -1 -39 -3 -38 22 -35 rrcurveto
          -24 15 48 -24 29 -13 callsubr
          16 callsubr
          -30 13 38 hvcurveto
          2 22 rlineto
          192 63 47 74 49 vvcurveto
          40 -38 8 -32 -46 -39 -13 -22 -40 vhcurveto
          23 -17 -14 12 -30 hhcurveto
          -59 -114 -51 -29 -52 hvcurveto
          -65 -36 -80 -65 -82 vvcurveto
          hintmask 01111100
          -49 61 -65 26 vhcurveto
          endchar
        </CharString>
        <CharString name="afii61289">
          103 -9 78 564 69 hstem
          113 99 236 69 vstem
          444 159 rmoveto
          -43 -37 -61 -47 -59 hhcurveto
          -52 -37 37 79 18 hvcurveto
          7 28 152 112 107 105 28 114 rlinecurve
          85 21 -23 73 -93 hhcurveto
          -87 -94 -63 -170 -43 hvcurveto
          -59 -236 -30 -21 -32 -20 -34 -22 rlinecurve
          15 -53 22 13 22 15 20 12 rlinecurve
          -1 -3 -1 -3 -4 vvcurveto
          -84 -11 32 -72 111 hhcurveto
          79 82 37 90 72 hvcurveto
          -189 363 rmoveto
          116 29 49 36 34 hhcurveto
          46 8 -37 -52 -13 hvcurveto
          -20 -78 -79 -83 -98 -81 rrcurveto
          endchar
        </CharString>
        <CharString name="agrave">
          -1 callsubr
          84 84 -85 callsubr
          -87 375 -102 callsubr
        </CharString>
        <CharString name="ampersand">
          183 -17 150 -113 -21 377 -20 23 -20 277 50 hstemhm
          -5 101 408 88 hintmask 10011110
          340 465 rmoveto
          19 70 20 81 108 20 rrcurveto
          8 1 9 -4 -9 vvcurveto
          -60 -118 -71 -46 -28 vhcurveto
          -47 -284 rmoveto
          -25 -46 -50 -23 -54 hhcurveto
          -13 -35 -1 19 1 hvcurveto
          2 48 93 90 46 19 56 -127 rcurveline
          209 282 rmoveto
          47 28 43 43 60 vvcurveto
          51 -49 43 -50 -2 vhcurveto
          -130 -5 -172 -119 24 -162 -106 -56 -99 -46 -15 -158 rrcurveto
          -90 -9 76 -67 90 hhcurveto
          77 73 51 38 63 hvcurveto
          hintmask 01011110
          -17 17 45 -56 25 hhcurveto
          35 58 94 28 8 -8 10 -8 hvcurveto
          -8 -10 -8 -11 hhcurveto
          -12 -14 9 18 -5 hvcurveto
          41 37 71 46 61 vvcurveto
          25 -11 28 -8 24 vhcurveto
          -160 -127 rlineto
          hintmask 10101110
          -25 38 -17 41 -7 45 rrcurveto
          hintmask 10011110
          149 87 rlineto
          endchar
        </CharString>
        <CharString name="approxequal">
          223 111 58 14 57 43 58 14 57 -36 -20 hstemhm
          111 469 hintmask 01101100
          544 411 rmoveto
          -45 -28 -27 -25 -39 hhcurveto
          -34 -21 14 20 -36 hvcurveto
          hintmask 01110100
          15 -27 -33 22 -47 hhcurveto
          -59 -52 49 callsubr
          27 34 45 hhcurveto
          33 27 -16 -16 29 hvcurveto
          hintmask 11101100
          -26 46 27 -14 42 hhcurveto
          56 43 39 54 31 hvcurveto
          -36 -137 rmoveto
          -45 -29 -25 -25 -40 hhcurveto
          -36 -24 18 17 -31 hvcurveto
          hintmask 01101100
          14 -27 -33 22 -47 hhcurveto
          -58 -53 49 callsubr
          26 34 46 hhcurveto
          33 26 -15 -17 30 hvcurveto
          hintmask 11101100
          -25 45 28 -15 41 hhcurveto
          58 43 40 53 30 hvcurveto
          endchar
        </CharString>
        <CharString name="aring">
          -1 callsubr
          49 33 40 callsubr
          0 50 49 62 hintmask 01101011
          -64 callsubr
          hintmask 10101101
          -54 -135 rmoveto
          53 callsubr
          -96 callsubr
          hintmask 01101101
          -18 callsubr
          hintmask 10101101
          92 74 rlineto
          hintmask 01111011
          173 424 -36 callsubr
        </CharString>
        <CharString name="asciicircum">
          247 239 397 hstem
          167 437 vstem
          604 239 rmoveto
          -188 397 rlineto
          -61 hlineto
          -188 -397 rlineto
          65 hlineto
          152 334 152 -334 rlineto
          endchar
        </CharString>
        <CharString name="asciitilde">
          200 188 58 14 57 hstemhm
          87 470 hintmask 01100000
          hintmask 11100000
          521 316 rmoveto
          -46 -29 -26 -24 -40 hhcurveto
          -33 -22 14 20 -35 hvcurveto
          hintmask 01100000
          14 -28 -33 23 -47 hhcurveto
          -58 -53 49 callsubr
          28 34 44 hhcurveto
          33 28 -16 -16 28 hvcurveto
          hintmask 11100000
          -25 47 27 -15 41 hhcurveto
          57 43 39 54 31 hvcurveto
          endchar
        </CharString>
        <CharString name="asterisk">
          149 684 -20 hstemhm
          264 72.5 -48.5 66 hintmask 11000000
          373 463 rmoveto
          156 72 rlineto
          25 -28 2 23 -25 hhcurveto
          hintmask 10100000
          -31 -69 -39 -16 -27 hvcurveto
          6 54 2 15 1 20 4 15 rlinecurve
          2 6 4 14 7 vvcurveto
          14 -10 11 -14 -15 -22 -22 -10 -9 vhcurveto
          -13 -15 3 -14 -1 -19 -2 -72 rcurveline
          -18 18 -21 15 -18 18 rrcurveto
          17 -17 -13 19 -26 hhcurveto
          -20 -6 -23 -16 -35 12 -6 27 -15 hvcurveto
          25 -14 22 -17 21 -20 rrcurveto
          -37 -27 -103 -36 -56 vvcurveto
          -17 10 -19 19 vhcurveto
          hintmask 11000000
          13 14 15 7 11 hvcurveto
          95 65 rlineto
          -5 -37 -8 -36 -38 vvcurveto
          -51 28 7 40 -14 vhcurveto
          9 168 123 -107 rlineto
          4 16 20 31 15 vvcurveto
          14 -17 11 -9 9 vhcurveto
          -89 70 rlineto
          endchar
        </CharString>
        <CharString name="at">
          395 -112 49 117 54 -54 68 233 56 111 47 hstemhm
          51 63 109 83 166 63 199 61 hintmask 1101111110000000
          496 -26 rmoveto
          -24 -48 -60 -13 -56 hhcurveto
          -153 -98 99 170 43 hvcurveto
          191 47 197 125 147 hhcurveto
          175 70 -106 -138 -34 hvcurveto
          -123 -31 -89 -47 -44 hhcurveto
          -31 1 -7 31 32 73 78 175 rcurveline
          13 -25 -43 10 -47 hhcurveto
          -136 -124 -101 -127 -31 hvcurveto
          hintmask 1011111110000000
          -80 -20 37 -49 63 hhcurveto
          61 59 37 51 44 hvcurveto
          3 hlineto
          hintmask 1101111110000000
          -58 -12 28 -30 45 hhcurveto
          94 119 79 149 37 hvcurveto
          153 38 -78 134 -209 hhcurveto
          -235 -191 -172 -197 -49 hvcurveto
          -181 -45 92 -131 201 hhcurveto
          69 57 11 30 65 hvcurveto
          -2 317 rmoveto
          hintmask 1011111110000000
          -56 -26 -66 -68 -51 hhcurveto
          -47 -10 36 40 10 hvcurveto
          86 22 85 71 77 hhcurveto
          21 22 -5 -3 9 hvcurveto
          endchar
        </CharString>
        <CharString name="atilde">
          -1 callsubr
          55 88 hstemhm
          -31 73 145 224 -191 93 hintmask 01111010
          -68 callsubr
          hintmask 10111010
          -96 callsubr
          hintmask 01111010
          -22 callsubr
          hintmask 01111100
          -30 356 -94 callsubr
        </CharString>
        <CharString name="b">
          1 -9 88 -67 -21 691 -20 hstemhm
          0 73 hintmask 01110000
          235 342 rmoveto
          64 62 148 150 91 vvcurveto
          19 -9 18 -20 -42 -157 -122 -97 -81 vhcurveto
          -79 -94 -59 -107 -126 vvcurveto
          -48 9 -97 65 66 70 61 45 43 vhcurveto
          64 1 51 16 45 47 -10 33 rcurveline
          -32 -23 -33 -22 -41 8 rrcurveto
          17 37 31 46 42 vvcurveto
          19 -6 25 -24 vhcurveto
          hintmask 10110000
          -59 -80 -98 -58 -16 6 -10 8 -13 hvcurveto
          -17 -20 -18 -27 -32 -5 -38 -5 -24 52 18 63 rrcurveto
          hintmask 01110000
          156 153 rlineto
          128 254 24 callsubr
          -17 -36 -22 -57 -209 -208 rlinecurve
          -2 2 59 116 90 101 99 84 rlinecurve
          endchar
        </CharString>
        <CharString name="backslash">
          -65 -39 712 hstem
          141 144 vstem
          285 -39 rmoveto
          -76 712 rlineto
          -68 hlineto
          75 -712 rlineto
          endchar
        </CharString>
        <CharString name="bar">
          6 -229 -21 hstem
          228 79 vstem
          228 752 rmoveto
          -1002 79 1002 vlineto
          endchar
        </CharString>
        <CharString name="braceleft">
          -49 703 -20 23 -20 hstemhm
          57 133 -54 133 hintmask 01010000
          254 163 rmoveto
          10 34 8 27 -3 21 -2 20 -11 14 -25 7 rrcurveto
          2 1 vlineto
          48 16 23 31 24 88 47 170 rcurveline
          hintmask 10010000
          17 62 22 32 44 14 rrcurveto
          2 vlineto
          hintmask 01010000
          -178 17 -20 -61 -28 -102 -44 -161 rcurveline
          -18 -64 -17 -28 -46 -15 rrcurveto
          -2 -1 vlineto
          34 -14 4 -31 -17 -62 rrcurveto
          hintmask 01100000
          -51 -182 -11 -28 -5 -23 -2 -19 rlinecurve
          -18 7 -14 10 -10 vhcurveto
          18 -20 46 -4 82 5 1 2 rcurveline
          -34 18 -4 28 18 64 rrcurveto
          hintmask 01010000
          53 184 rlineto
          endchar
        </CharString>
        <CharString name="braceright">
          -49 706 -20 hstemhm
          156 133 -54 133 hintmask 11000000
          171 410 rmoveto
          -10 -34 -8 -27 3 -21 2 -20 11 -14 25 -7 rrcurveto
          -2 -1 vlineto
          -48 -16 -23 -31 -24 -88 -47 -170 rcurveline
          -17 -62 -22 -32 -44 -14 rrcurveto
          -2 vlineto
          178 -17 20 61 28 102 44 161 rcurveline
          18 64 17 28 46 15 rrcurveto
          2 1 vlineto
          -34 14 -4 31 17 62 rrcurveto
          hintmask 10100000
          51 182 11 28 5 23 2 19 rlinecurve
          18 -7 14 -10 10 vhcurveto
          -18 20 -46 4 -82 -5 -1 -2 rcurveline
          34 -18 4 -28 -18 -64 rrcurveto
          hintmask 11000000
          -53 -184 rlineto
          endchar
        </CharString>
        <CharString name="bracketleft">
          73 callsubr
          55 509 vstem
          351 -131 rmoveto
          28 88 rlineto
          -173 hlineto
          171 661 rlineto
          160 hlineto
          27 88 rlineto
          -292 hlineto
          -217 -837 rlineto
          296 hlineto
          endchar
        </CharString>
        <CharString name="bracketright">
          73 callsubr
          -48 509 vstem
          165 706 rmoveto
          -28 -88 rlineto
          173 hlineto
          -171 -661 rlineto
          -160 hlineto
          -27 -88 rlineto
          292 hlineto
          217 837 rlineto
          -296 hlineto
          endchar
        </CharString>
        <CharString name="breve">
          -59 414 50 hstem
          101 317 vstem
          236 414 rmoveto
          87 95 69 42 5 -1 9 -8 -7 -20 -10 -5 -5 hvcurveto
          -31 -29 -33 -27 -43 -4 rrcurveto
          -70 -4 46 29 -54 hvcurveto
          -7 -6 -5 -8 callsubr
          55 -68 80 vhcurveto
          endchar
        </CharString>
        <CharString name="brokenbar">
          6 -174 851 hstem
          228 78 vstem
          228 677 rmoveto
          -351 78 351 vlineto
          -78 -502 rmoveto
          -349 78 349 vlineto
          endchar
        </CharString>
        <CharString name="bullet">
          1 177 354 hstem
          53 379 vstem
          432 422 rmoveto
          82 -83 26 -71 vhcurveto
          -163 19 -62 -206 -48 vvcurveto
          -84 122 -34 67 116 74 163 82 vhcurveto
          endchar
        </CharString>
        <CharString name="c">
          -40 -13 88 310 -20 hstem
          -3 73 14 callsubr
          95 112 99 65 61 vhcurveto
          32 callsubr
        </CharString>
        <CharString name="caron">
          -58 414 60 hstem
          90 317 vstem
          276 491 -86 callsubr
        </CharString>
        <CharString name="ccedilla">
          -40 -179 36 69 19 42 88 310 -20 hstem
          -3 73 70 88 14 callsubr
          1 2 0 1 1 vhcurveto
          -32 -62 -24 callsubr
          26 51 83 24 86 77 50 54 rlinecurve
          32 callsubr
        </CharString>
        <CharString name="cedilla">
          -59 -179 36 69 19 hstem
          130 88 vstem
          152 hmoveto
          -41 hlineto
          -38 -74 -24 callsubr
          28 55 rlineto
          endchar
        </CharString>
        <CharString name="cent">
          169 113 145 113 110 -20 hstemhm
          106 88 20 73 hintmask 11110000
          259 282 rmoveto
          -26 -1 -44 1 5 35 6 39 36 34 76 16 -53 -124 rcurveline
          190 147 rmoveto
          -5 -5 -5 -7 -8 vvcurveto
          -6 5 -3 5 12 24 15 5 10 vhcurveto
          25 11 13 4 30 vvcurveto
          20 -8 31 -16 13 vhcurveto
          13 -15 -26 -2 -19 hhcurveto
          9 23 3 4 17 17 rrcurveto
          12 13 20 22 19 vvcurveto
          12 -9 0 -10 -64 -4 -22 -100 -53 vhcurveto
          -63 -16 -69 -15 -48 -45 rrcurveto
          -47 -44 -37 -64 -65 vvcurveto
          -81 44 -23 75 -6 vhcurveto
          hintmask 11111000
          -5 -19 -6 -21 -20 vvcurveto
          -49 32 2 41 -10 vhcurveto
          59 2 20 8 37 vhcurveto
          65 17 126 16 88 vvcurveto
          8 0 41 -14 -7 -14 -8 -3 -6 vhcurveto
          -30 -16 -46 -5 -33 -8 55 127 rcurveline
          hintmask 11110000
          56 4 rlineto
          endchar
        </CharString>
        <CharString name="circumflex">
          1 468 60 hstem
          75 317 vstem
          206 451 -106 callsubr
        </CharString>
        <CharString name="colon">
          -98 16 -21 386 -20 hstem
          48 269 vstem
          111 -5 -53 callsubr
          119 237 -47 callsubr
        </CharString>
        <CharString name="comma">
          -9 callsubr
        </CharString>
        <CharString name="copyright">
          471 -20 94 71 88 250 88 61 94 hstem
          62 94 85 101 372 7 callsubr
          -94 vmoveto
          74 callsubr
          -129 -150 -150 -129 -129 -150 -150 -129 129 150 74 callsubr
          129 150 hvcurveto
          182 -210 rmoveto
          -18 105 -61 37 -100 7 rrcurveto
          -114 7 -83 -86 -134 vvcurveto
          -134 83 -87 114 8 vhcurveto
          51 3 40 11 30 23 29 22 20 35 9 55 rrcurveto
          -98 hlineto
          -33 -38 -28 -44 -68 -27 52 73 73 27 52 68 30 21 -13 -12 13 vhcurveto
          13 -18 5 -2 -16 vvcurveto
          98 hlineto
          endchar
        </CharString>
        <CharString name="currency">
          295 122 60 287 60 hstem
          209 68 248 68 vstem
          613 126 rmoveto
          -68 69 rlineto
          28 31 20 53 46 vvcurveto
          48 -17 51 -29 31 vhcurveto
          66 66 -41 41 -62 -72 rlineto
          29 -31 -39 10 -40 hhcurveto
          -34 -43 -11 -28 -31 hvcurveto
          -61 72 -43 -41 66 -66 rlineto
          -28 -31 -17 -51 -48 vvcurveto
          -59 22 -44 23 -28 vhcurveto
          -66 -68 42 -41 62 73 rlineto
          -28 32 42 -8 34 hhcurveto
          34 41 10 28 33 hvcurveto
          63 -75 rlineto
          -170 384 rmoveto
          69 55 -59 -85 -85 -55 -58 -69 -70 -54 57 86 85 55 59 67 hvcurveto
          endchar
        </CharString>
        <CharString name="d">
          102 -10 88 hstem
          -7 88 150 88 vstem
          502 467 rmoveto
          16 25 27 41 30 vvcurveto
          18 -12 20 -20 -73 -88 -207 -57 -33 vhcurveto
          -13 15 -8 14 -21 -1 rrcurveto
          -85 -5 -199 -100 -118 vvcurveto
          -35 28 -96 45 45 93 97 30 35 vhcurveto
          -4 -25 -4 -26 -25 vvcurveto
          -32 15 -40 38 73 103 105 52 47 vhcurveto
          -7 33 rlineto
          -21 -32 -92 -81 -34 hhcurveto
          -22 -1 34 16 64 48 65 33 52 hvcurveto
          102 158 rlineto
          -217 -189 rmoveto
          -16 -59 -161 -120 -12 3 -11 2 -5 8 1 9 6 66 22 34 176 57 rrcurveto
          endchar
        </CharString>
        <CharString name="dagger">
          125 381 80 hstem
          101 466 vstem
          346 662 rmoveto
          -42 -205 -181 8 -22 -88 185 8 -117 -433 rlineto
          95 hlineto
          99 433 182 -8 22 88 -186 -8 61 205 rlineto
          endchar
        </CharString>
        <CharString name="daggerdbl">
          125 140 78 179 78 hstem
          41 530 vstem
          347 662 rmoveto
          -41 -191 -180 8 -21 -86 184 8 -47 -187 -180 8 -21 -86 183 8 -54 -192 rlineto
          92 hlineto
          41 192 70 callsubr
          47 187 70 callsubr
          55 191 rlineto
          endchar
        </CharString>
        <CharString name="degree">
          82 372 41 199 42 hstem
          166 53 165 53 vstem
          301 654 rmoveto
          -72 -63 -56 -86 -88 63 -52 72 74 62 52 88 79 -55 63 -80 hvcurveto
          -1 -42 rmoveto
          56 27 -45 -56 -58 -31 -40 -50 -50 -34 43 57 60 34 39 47 hvcurveto
          endchar
        </CharString>
        <CharString name="dieresis">
          49 446 115 -115 116 hstemhm
          135 315 hintmask 01100000
          hintmask 10100000
          198 446 -105 callsubr
        </CharString>
        <CharString name="divide">
          240 41 102 87 60 87 100 hstem
          316 95 vstem
          365 377 rmoveto
          26 22 22 28 27 -22 23 -26 -24 -23 -23 -27 -28 23 -22 23 hvcurveto
          227 -147 rmoveto
          60 -456 -60 vlineto
          230 -87 rmoveto
          -28 -21 -22 -28 -27 21 -25 28 23 23 25 27 28 -23 22 -22 hvcurveto
          endchar
        </CharString>
        <CharString name="dollar">
          24 131 218 -20 hstem
          103 88 258 88 vstem
          284 373 rmoveto
          -18 3 -75 11 25 vvcurveto
          25 102 46 26 5 vhcurveto
          -35 -115 rlineto
          64 -84 rmoveto
          22 -9 79 -12 -30 vvcurveto
          -32 -106 -29 -27 -9 vhcurveto
          32 121 rlineto
          -117 -132 rmoveto
          -192 -2 rlineto
          -42 -32 -66 -16 1 hvcurveto
          2 -25 22 -23 94 -2 32 -1 37 -2 49 4 rrcurveto
          -16 -11 -27 -26 vvcurveto
          -34 52 -2 23 -7 vhcurveto
          23 132 61 16 53 19 52 34 rlinecurve
          43 28 39 47 53 vvcurveto
          70 -120 25 -53 19 vhcurveto
          43 151 121 16 2 -2 -41 -30 -28 -18 -3 -14 rlinecurve
          -6 5 -5 7 10 15 9 6 8 vhcurveto
          27 20 20 7 31 11 60 21 15 14 8 74 2 14 -7 2 -12 3 -29 10 -40 4 -30 -2 -93 -6 rcurveline
          17 49 8 12 31 38 rrcurveto
          11 13 8 14 17 vvcurveto
          16 -11 17 -17 -75 -42 -134 -57 -21 vhcurveto
          -60 -16 -134 -42 -32 -56 rrcurveto
          -13 -22 -22 -68 -26 vvcurveto
          -26 7 -19 25 -9 vhcurveto
          46 -17 6 5 81 -16 -37 -150 rcurveline
          endchar
        </CharString>
        <CharString name="dotaccent">
          -59 420 150 hstem
          199 150 vstem
          262 420 -47 callsubr
        </CharString>
        <CharString name="dotlessi">
          58 callsubr
          hstem
          -13 295 vstem
          -78 callsubr
          endchar
        </CharString>
        <CharString name="e">
          -30 callsubr
          endchar
        </CharString>
        <CharString name="eacute">
          28 callsubr
          77 88 -70 callsubr
          166 306 -107 callsubr
        </CharString>
        <CharString name="ecircumflex">
          28 callsubr
          109 60 -70 callsubr
          85 257 -106 callsubr
        </CharString>
        <CharString name="edieresis">
          -30 callsubr
          53 252 -105 callsubr
        </CharString>
        <CharString name="egrave">
          28 callsubr
          80 84 -70 callsubr
          3 323 -102 callsubr
        </CharString>
        <CharString name="eight">
          -14 73 464 130 hstemhm
          69 88 14 101 56 88 hintmask 11101000
          520 520 rmoveto
          hintmask 11111000
          -193 -166 rlineto
          -24 24 -31 47 21 vvcurveto
          42 60 47 111 -9 vhcurveto
          hintmask 11101000
          77 -6 rlineto
          -225 -280 rmoveto
          18 -26 15 -21 -34 vvcurveto
          -66 -79 -34 -58 -17 -17 -1 22 28 34 37 20 18 vhcurveto
          84 77 rlineto
          237 215 rmoveto
          35 32 2 5 -5 24 26 -5 8 10 21 32 rrcurveto
          13 20 17 24 25 vvcurveto
          12 -5 4 -11 3 vhcurveto
          -12 4 -52 10 -63 -2 -63 -4 -74 -14 -54 -18 rrcurveto
          hintmask 11111000
          -72 -25 -72 -53 -83 vvcurveto
          -66 42 -46 39 -49 vhcurveto
          hintmask 11101000
          -55 -50 -128 -97 -81 vvcurveto
          -56 69 -28 47 3 vhcurveto
          191 11 41 106 -1 59 -1 57 -13 44 -36 44 166 148 rcurveline
          endchar
        </CharString>
        <CharString name="ellipsis">
          601 -5 149 -128 -21 hstemhm
          92 150 183 150 183 150 cntrmask 00111000
          hintmask 01111000
          155 -5 rmoveto
          -14 callsubr
          333 hmoveto
          -14 callsubr
          333 hmoveto
          -14 callsubr
          endchar
        </CharString>
        <CharString name="emdash">
          601 52 callsubr
          1000 vstem
          320 vmoveto
          -88 1000 88 -1000 vlineto
          endchar
        </CharString>
        <CharString name="endash">
          101 52 callsubr
          500 vstem
          232 vmoveto
          500 88 -500 -88 hlineto
          endchar
        </CharString>
        <CharString name="equal">
          218 129 60 143 60 hstem
          114 455 vstem
          569 332 rmoveto
          60 -455 -60 vlineto
          455 -203 rmoveto
          60 -455 -60 vlineto
          endchar
        </CharString>
        <CharString name="estimated">
          529 -13 19 303 18 303 20 hstem
          160 136 466 135 vstem
          897 309 rmoveto
          9 vlineto
          183 -165 149 -204 -203 -165 -149 -183 -183 165 -148 203 119 107 51 78 66 vhcurveto
          -53 hlineto
          -67 -58 -85 -43 -95 hhcurveto
          -88 -79 38 60 -58 hvcurveto
          -5 6 -3 7 8 vvcurveto
          180 vlineto
          3 2 1 3 vhcurveto
          461 24 rmoveto
          -2 -1 -4 -3 vhcurveto
          -457 hlineto
          -3 -2 4 2 hvcurveto
          177 vlineto
          9 3 8 6 6 vhcurveto
          59 58 79 38 87 hhcurveto
          88 78 -37 -57 58 hvcurveto
          6 -6 3 -8 -8 vvcurveto
          endchar
        </CharString>
        <CharString name="eth">
          102 -6 73 2 69 241 -20 hstemhm
          -11 73 251 86 hintmask 10111000
          hintmask 01111000
          398 192 rmoveto
          -23 -24 -29 -31 -34 hhcurveto
          -5 -5 0 1 -6 hvcurveto
          59 81 45 100 90 vvcurveto
          56 -9 32 -8 27 vhcurveto
          87 31 rlineto
          8 3 13 4 8 vvcurveto
          6 -9 31 -9 -7 -9 -3 -8 -21 vhcurveto
          -73 -26 rlineto
          44 -27 -62 43 -16 hhcurveto
          -14 -17 -23 -9 -7 40 -21 28 -52 hvcurveto
          -101 -37 rlineto
          -10 -4 -3 -5 -5 vvcurveto
          -7 13 -27 8 5 9 3 5 13 vhcurveto
          81 29 rlineto
          2 -12 2 -16 -22 vvcurveto
          -32 -4 -28 -8 -27 vhcurveto
          -2 hlineto
          11 -6 -6 7 -21 hhcurveto
          -50 -83 -29 -44 -54 hvcurveto
          -56 -44 -34 -50 -75 vvcurveto
          hintmask 10111000
          -91 51 -52 52 63 49 32 43 42 vhcurveto
          hintmask 01111000
          2 callsubr
          rlineto
          hintmask 10111000
          -336 -87 rmoveto
          94 108 79 107 12 vhcurveto
          -17 -50 -40 -90 -39 -43 rrcurveto
          -21 -23 -21 -19 -31 hhcurveto
          -25 -19 9 29 hvcurveto
          endchar
        </CharString>
        <CharString name="exclam">
          -7 -11 170 -149 -21 700 -20 hstemhm
          71 120 -62 93 hintmask 01110000
          125 -11 rmoveto
          46 20 71 35 hvcurveto
          hintmask 10110000
          68 callsubr
          hintmask 01110000
          -26 28 -22 26 vhcurveto
          hintmask 01101000
          34 327 rmoveto
          -9 -21 -21 -43 -23 vvcurveto
          -24 37 -30 23 20 13 26 18 6 -2 5 -3 6 vhcurveto
          179 349 rlineto
          8 16 21 39 17 vvcurveto
          16 -29 4 -10 3 vhcurveto
          2 -10 -21 7 -11 hhcurveto
          -26 -9 -31 -20 -9 hvcurveto
          -141 -322 rlineto
          endchar
        </CharString>
        <CharString name="exclamdown">
          -7 -269 701 -170 170 hstemhm
          194 93 -62 120 hintmask 10010000
          hintmask 01010000
          291 432 45 callsubr
          hintmask 10100000
          -34 -328 rmoveto
          9 21 21 43 23 vvcurveto
          24 -37 30 -23 -20 -13 -26 -18 -6 2 -5 3 -6 vhcurveto
          -179 -349 rlineto
          -8 -16 -21 -39 -17 vvcurveto
          -16 29 -4 10 -3 vhcurveto
          -2 10 21 -7 11 hhcurveto
          26 9 31 20 9 hvcurveto
          141 322 rlineto
          endchar
        </CharString>
        <CharString name="f">
          -89 -228 -21 46 callsubr
          -40 callsubr
          289 601 rmoveto
          -83 callsubr
          49 24 40 35 40 36 -11 37 rcurveline
          -135 -84 37 callsubr
          endchar
        </CharString>
        <CharString name="f_i">
          -74 callsubr
        </CharString>
        <CharString name="f_l">
          -76 callsubr
        </CharString>
        <CharString name="fi">
          -74 callsubr
        </CharString>
        <CharString name="five">
          -10 120 -120 197 -176 -21 343 101 80 133 hstemhm
          464 73 hintmask 00111100
          182 497 rmoveto
          -21 -22 -28 -36 -32 vvcurveto
          -31 17 -76 40 12 31 10 7 38 vhcurveto
          8 38 46 8 40 hhcurveto
          20 49 -11 -27 hvcurveto
          hintmask 10011100
          -55 -134 -104 -238 -26 vhcurveto
          55 callsubr
          hintmask 01011100
          61 42 rlineto
          6 4 15 9 9 vvcurveto
          9 -10 2 -6 -15 -142 -38 -73 -64 5 -22 98 201 137 83 102 61 vhcurveto
          24 40 12 42 41 vvcurveto
          93 -78 43 -86 -47 -46 -9 -12 -46 vhcurveto
          22 40 29 35 34 27 170 -2 rcurveline
          91 -1 1 16 66 119 rrcurveto
          -241 hlineto
          -59 -19 5 -45 -43 hvcurveto
          hintmask 00111100
          -103 -110 rlineto
          endchar
        </CharString>
        <CharString name="fl">
          -76 callsubr
        </CharString>
        <CharString name="florin">
          251 267 47.5 hstemhm
          -20 101 -70 149 352 153 -76 101 hintmask 11010000
          310 312 rmoveto
          -62 5 -59 5 -8 -14 -16 -47 rlinecurve
          71 7 49 -2 -103 -181 rlineto
          -70 -40 -42 -48 -13 hhcurveto
          -7 0 10 9 4 hvcurveto
          hintmask 10110000
          35 54 57 109 -20 75 rrcurveto
          15 -4 -9 15 -18 hhcurveto
          -19 -40 -40 -12 -14 hvcurveto
          -11 -10 -35 -30 5 -18 3 -11 11 -2 8 -1 rrcurveto
          hintmask 11001000
          -46 -159 -4 12 -3 -47 rrcurveto
          -74 -5 44 -35 29 hhcurveto
          53 108 149 44 24 hvcurveto
          65 117 66 117 64 -12 rlineto
          -2 12 19 -6 12 hhcurveto
          13 9 7 14 -4 hvcurveto
          -8 31 -63 13 -25 3 138 246 rcurveline
          32 48 rlineto
          6 4 8 10 8 hhcurveto
          3 2 -2 -3 1 hvcurveto
          4 -15 -26 -45 -6 -11 rrcurveto
          hintmask 11010000
          -23 -44 -38 -100 15 -56 rrcurveto
          -16 4 10 -22 20 hhcurveto
          15 16 17 8 8 hvcurveto
          17 15 68 53 -8 27 -3 12 -10 1 -11 3 rrcurveto
          hintmask 11001000
          28 108 21 29 102 vvcurveto
          56 -49 34 -20 -31 -38 -36 -26 -22 vhcurveto
          -18 -22 -18 -26 -22 -40 rrcurveto
          hintmask 11010000
          -162 -301 rlineto
          endchar
        </CharString>
        <CharString name="four">
          139 133 371 -20 hstemhm
          37 589 -382 124 hintmask 11100000
          326 272 rmoveto
          -65 -8 -43 -2 -27 2 rrcurveto
          -26 1 -11 4 5 vvcurveto
          12 28 60 76 208 122 41 24 45 20 44 20 34 callsubr
          -240 -290 rlineto
          199 -101 rmoveto
          8 16 37 51 22 vvcurveto
          21 -18 4 -19 vhcurveto
          -25 -26 -5 -25 hhcurveto
          46 73 44 64 52 64 15 19 9 21 2 18 4 19 -6 17 -18 9 rrcurveto
          8 7 13 13 11 vvcurveto
          20 -21 8 -17 -63 -244 -119 -110 -127 vhcurveto
          -38 -33 -79 -83 -52 vvcurveto
          -30 16 -33 14 -26 vhcurveto
          hintmask 11010000
          15 -28 74 12 108 5 rrcurveto
          -7 -44 -13 -39 -39 vvcurveto
          -15 3 -35 21 19 78 46 10 23 vhcurveto
          -10 15 -10 15 19 vvcurveto
          21 6 16 11 38 vhcurveto
          hintmask 11100000
          140 17 rlineto
          endchar
        </CharString>
        <CharString name="fraction">
          19 callsubr
        </CharString>
        <CharString name="g">
          44 -233 -21 270 88 273 -20 hstem
          -6 73 vstem
          197 8 rmoveto
          -55 -40 -152 -126 -72 vvcurveto
          -13 9 -11 14 39 88 64 167 105 vhcurveto
          211 158 -5 42 -152 -109 -2 2 75 140 rlineto
          7 13 14 23 15 vvcurveto
          17 -18 34 -20 -16 -12 -17 -11 -10 vhcurveto
          -107 -118 -38 -41 -61 -24 -28 3 rlinecurve
          -9 -6 2 8 -1 hvcurveto
          -9 73 74 28 63 34 114 62 rcurveline
          13 9 20 14 18 vvcurveto
          22 -39 4 -14 -1 vhcurveto
          -77 -7 -218 -106 -131 vvcurveto
          -44 19 -73 56 55 105 91 40 36 vhcurveto
          2 -2 -70 -137 rlineto
          endchar
        </CharString>
        <CharString name="germandbls">
          157 -14 138 -117 -21 323.5 80.5 0 -20 195 73 hstemhm
          406 113 -48 101 hintmask 01011100
          hintmask 10101100
          291 312 rmoveto
          51 3 64 -19 -63 vvcurveto
          -90 -94 -32 -72 -13 vhcurveto
          55 callsubr
          4 2 3 6 6 vvcurveto
          5 -5 5 -5 -12 -38 -9 -6 -10 vhcurveto
          -24 -14 -10 -26 -27 vvcurveto
          -47 28 -9 42 124 184 119 136 54 -31 40 -51 17 vhcurveto
          -38 12 -56 0 -39 -2 65 callsubr
          hintmask 01101010
          71 35 199 54 98 vvcurveto
          57 -38 30 -54 -69 -82 -53 -45 -50 vhcurveto
          -53 -47 -36 -62 -36 -59 rrcurveto
          -20 -3 -49 -7 -29 vvcurveto
          -19 15 -7 17 -2 vhcurveto
          -30 -65 -109 -219 -61 vvcurveto
          -24 10 -24 27 36 19 61 26 11 vhcurveto
          125 308 rlineto
          hintmask 10101100
          85 5 rlineto
          -44 78 rmoveto
          hintmask 01011010
          20 38 21 37 29 31 rrcurveto
          27 24 48 42 38 hhcurveto
          24 20 -16 -25 -43 -44 -22 -34 -13 hvcurveto
          hintmask 10101100
          -146 -56 rlineto
          endchar
        </CharString>
        <CharString name="grave">
          -49 439 84 hstem
          43 264 vstem
          99 517 -102 callsubr
        </CharString>
        <CharString name="greater">
          249 4 510 hstem
          536 62 vstem
          148 514 rmoveto
          -67 vlineto
          388 -187 rlineto
          -2 vlineto
          -387 -187 rlineto
          -67 vlineto
          449 224 rlineto
          62 vlineto
          endchar
        </CharString>
        <CharString name="greaterequal">
          265 -8 59 hstem
          552 62 vstem
          166 577 rmoveto
          -68 vlineto
          386 -176 rlineto
          -1 vlineto
          -386 -176 rlineto
          -68 vlineto
          448 213 rlineto
          62 vlineto
          -371 vmoveto
          59 -453 -59 vlineto
          endchar
        </CharString>
        <CharString name="guillemotleft">
          -17 60 callsubr
          38 73 -73 340 -171 73 hintmask 10100000
          hintmask 11010000
          172 113 rmoveto
          -33 callsubr
          169 hmoveto
          -33 callsubr
          endchar
        </CharString>
        <CharString name="guillemotright">
          -17 60 callsubr
          65 340 -242 73 96 73 hintmask 11000000
          hintmask 10110000
          271 440 rmoveto
          -32 callsubr
          -169 hmoveto
          -32 callsubr
          endchar
        </CharString>
        <CharString name="guilsinglleft">
          -186 60 callsubr
          38 73 -73 171 hintmask 10100000
          hintmask 11000000
          172 113 rmoveto
          -33 callsubr
          endchar
        </CharString>
        <CharString name="guilsinglright">
          -186 60 callsubr
          70 171 -73 73 hintmask 11000000
          hintmask 10100000
          107 440 rmoveto
          -32 callsubr
          endchar
        </CharString>
        <CharString name="h">
          43 11 -21 663 -20 hstem
          -10 73 117 106 vstem
          63 165 rmoveto
          64 63 318 330 68 vvcurveto
          20 -27 7 -16 -34 -199 -175 -195 -118 vhcurveto
          -35 -57 -26 -48 -69 vvcurveto
          -23 5 -78 35 32 50 106 117 171 vhcurveto
          53 callsubr
          -36 -47 -69 -76 -63 vvcurveto
          -27 16 -26 30 55 121 98 35 46 vhcurveto
          -5 41 rlineto
          -19 -29 -73 -54 -33 hhcurveto
          -12 -10 8 13 10 -3 3 62 75 hvcurveto
          12 14 40 44 19 vvcurveto
          23 -24 25 -24 -55 -182 -160 -39 -49 vhcurveto
          39 vlineto
          endchar
        </CharString>
        <CharString name="hungarumlaut">
          -52 449 262 hstem
          38 334 vstem
          83 619 rmoveto
          -17 callsubr
          174 hmoveto
          -17 callsubr
          endchar
        </CharString>
        <CharString name="hyphen">
          10 callsubr
        </CharString>
        <CharString name="i">
          58 callsubr
          hstemhm
          -13 319 -120 120 hintmask 11000000
          -78 callsubr
          hintmask 10100000
          -47 197 -12 callsubr
        </CharString>
        <CharString name="iacute">
          58 callsubr
          350 88 hstem
          -13 354 vstem
          -78 callsubr
          -47 332 -107 callsubr
        </CharString>
        <CharString name="icircumflex">
          58 callsubr
          382 60 hstem
          -13 344 vstem
          -78 callsubr
          -128 283 -106 callsubr
        </CharString>
        <CharString name="idieresis">
          58 callsubr
          hstem
          -13 378 vstem
          -78 callsubr
          -160 278 -105 callsubr
        </CharString>
        <CharString name="igrave">
          58 callsubr
          353 84 hstem
          -13 295 vstem
          -78 callsubr
          -210 349 -102 callsubr
        </CharString>
        <CharString name="infinity">
          424 105 55 204 54 hstem
          119 59 538 59 vstem
          775 265 rmoveto
          91 -61 62 -84 -84 -49 -60 -51 -45 vhcurveto
          61 -51 -53 50 -73 hhcurveto
          -89 -67 -66 -92 -90 70 -65 78 79 51 52 60 51 hvcurveto
          -80 66 51 -32 58 hhcurveto
          78 74 60 99 hvcurveto
          -500 -104 rmoveto
          -58 -39 45 54 58 35 47 57 66 40 -54 -52 41 hvcurveto
          -42 -38 -45 -56 -58 hhcurveto
          348 204 rmoveto
          54 38 -41 -63 -47 -32 -53 -58 -49 -35 32 71 -61 hvcurveto
          35 32 48 66 62 hhcurveto
          endchar
        </CharString>
        <CharString name="integral">
          92 -153 72 798 68 hstemhm
          262 86 -71 85 hintmask 11010000
          477 772 rmoveto
          6 -11 -23 7 -23 hhcurveto
          hintmask 11100000
          -37 -38 -11 -28 -27 hvcurveto
          -40 -39 -16 -58 -103 vvcurveto
          hintmask 11010000
          -150 15 -149 -159 vvcurveto
          -88 -12 -38 -20 -23 vhcurveto
          -14 -11 -17 -6 -16 hhcurveto
          -20 -16 7 4 -9 hvcurveto
          -14 -67 rlineto
          -8 13 30 -8 28 hhcurveto
          42 44 17 41 24 hvcurveto
          21 33 18 58 92 vvcurveto
          hintmask 11100000
          156 -14 146 146 vvcurveto
          81 7 50 23 27 vhcurveto
          16 12 20 7 18 hhcurveto
          13 15 -4 -5 9 hvcurveto
          endchar
        </CharString>
        <CharString name="j">
          -40 383 -20 hstemhm
          -61 432 -120 120 hintmask 11000000
          366 134 rmoveto
          -6 44 -163 -96 -2 2 104 201 rlineto
          8 15 15 29 17 vvcurveto
          26 -20 10 -24 1 vhcurveto
          -36 1 -82 -35 -34 -12 -37 -13 -39 -14 -10 -16 -10 -16 -1 -24 -24 -58 75 14 68 39 74 21 -128 -248 rcurveline
          -55 -40 -100 -92 -72 vvcurveto
          -18 7 -22 21 59 94 183 47 33 vhcurveto
          213 126 rlineto
          hintmask 10100000
          -75 277 -12 callsubr
        </CharString>
        <CharString name="k">
          86 -22 88 199 101 287 -20 hstem
          -14 73 297 88 vstem
          477 627 rmoveto
          14 -11 11 -14 1 vhcurveto
          -44 3 -240 -192 -108 -170 rrcurveto
          -34 -53 -40 -52 -64 vvcurveto
          -24 9 -97 35 19 9 15 15 8 vhcurveto
          15 25 16 23 22 20 rrcurveto
          -48 31 46 -76 66 hhcurveto
          67 120 115 44 50 hvcurveto
          -10 41 -124 -99 -39 -14 -19 1 rlinecurve
          -35 2 -11 16 -19 26 rrcurveto
          67 40 135 51 93 vvcurveto
          29 -18 43 -34 -68 -212 -183 -49 -54 vhcurveto
          2 27 rlineto
          60 66 357 331 69 vvcurveto
          -263 -488 rmoveto
          -11 10 -13 7 -14 5 rrcurveto
          34 25 105 70 37 hhcurveto
          5 8 -2 -6 -21 -33 -21 -15 -11 hvcurveto
          -94 -65 rlineto
          endchar
        </CharString>
        <CharString name="l">
          -99 -10 88 hstem
          -6 88 vstem
          109 284 48 callsubr
          195 -106 -26 callsubr
          -65 -80 -45 -113 -105 51 callsubr
          endchar
        </CharString>
        <CharString name="less">
          249 4 510 hstem
          148 62 vstem
          598 4 rmoveto
          67 vlineto
          -388 188 rlineto
          2 vlineto
          388 186 rlineto
          67 vlineto
          -450 -224 rlineto
          -61 vlineto
          endchar
        </CharString>
        <CharString name="lessequal">
          265 -8 59 hstem
          165 62 vstem
          613 88 rmoveto
          68 vlineto
          -386 176 rlineto
          2 vlineto
          386 175 rlineto
          68 vlineto
          -448 -213 rlineto
          -63 vlineto
          451 -309 rmoveto
          59 -456 -59 vlineto
          endchar
        </CharString>
        <CharString name="logicalnot">
          216 321 60 hstem
          505 62 vstem
          567 105 rmoveto
          276 -456 -60 394 -216 vlineto
          endchar
        </CharString>
        <CharString name="lozenge">
          307 -46 75 578 77 hstem
          180 476 vstem
          656 319 rmoveto
          -198 365 rlineto
          -78 hlineto
          -200 -365 198 -365 rlineto
          77 hlineto
          113 362 rmoveto
          -131 -242 -6 -11 -8 -22 -3 -12 rlinecurve
          -3 hlineto
          -3 11 -7 18 -8 17 -132 246 rcurveline
          130 239 8 16 7 17 4 14 rlinecurve
          3 hlineto
          3 -13 8 -20 7 -14 rrcurveto
          endchar
        </CharString>
        <CharString name="lslash">
          -99 -10 88 hstem
          -6 88 vstem
          46 343 rmoveto
          -71 -45 -7 -17 -5 -59 18 15 20 16 20 16 34 callsubr
          -18 -46 -11 -51 -50 51 callsubr
          -10 callsubr
          92 89 57 66 36 55 12 6 rcurveline
          16 8 24 8 14 9 16 10 9 14 -9 11 -8 10 -17 0 -18 -4 18 41 5 34 3 36 43 callsubr
          -93 -95 -107 -90 hvcurveto
          -16 -19 -13 -23 -13 -23 -16 -10 rcurveline
          64 -59 48 callsubr
          endchar
        </CharString>
        <CharString name="m">
          311 5 -21 34 -21 25 -21 374 -20 hstemhm
          -11 88 hintmask 00111000
          497 206 rmoveto
          53 callsubr
          hintmask 10011000
          -25 -41 -49 -71 -50 vvcurveto
          -29 21 -29 30 56 144 118 37 47 vhcurveto
          -6 47 -123 -84 -11 0 -21 -5 rlinecurve
          -12 -3 -13 16 1 12 1 23 6 16 78 86 rrcurveto
          11 12 20 22 17 vvcurveto
          14 -11 15 -7 11 vhcurveto
          4 -3 -10 24 -8 hhcurveto
          -12 -25 -20 -8 -10 hvcurveto
          -222 -175 55 callsubr
          22 39 71 81 44 vvcurveto
          26 -14 20 -27 -65 -178 -178 -51 -49 vhcurveto
          -3 -3 -12 -13 -5 hhcurveto
          -4 -3 7 2 21 18 16 11 15 hvcurveto
          15 22 22 18 18 21 rrcurveto
          12 14 28 30 20 vvcurveto
          21 -30 0 -15 2 vhcurveto
          -60 8 -106 -134 -1 -98 rrcurveto
          hintmask 00111000
          -36 14 -78 48 18 14 15 13 11 vhcurveto
          47 58 56 60 52 55 rrcurveto
          7 7 22 24 10 hhcurveto
          4 3 -3 -4 -3 -4 -8 -2 -2 hvcurveto
          hintmask 01011000
          -65 -99 -24 -46 1 -29 rrcurveto
          -24 1 19 -18 24 hhcurveto
          34 36 41 22 23 hvcurveto
          hintmask 00111000
          159 146 rlineto
          endchar
        </CharString>
        <CharString name="macron">
          -3 callsubr
        </CharString>
        <CharString name="minus">
          193 230 60 hstem
          88 456 vstem
          544 230 rmoveto
          60 -456 -60 vlineto
          endchar
        </CharString>
        <CharString name="mu">
          -66 callsubr
        </CharString>
        <CharString name="multiply">
          242 15 472 hstem
          139 451 vstem
          590 58 rmoveto
          -185 194 185 194 -43 41 -181 -192 -182 191 -44 -42 183 -193 -184 -193 43 -42 181 192 182 -193 rlineto
          endchar
        </CharString>
        <CharString name="n">
          66 callsubr
          hstemhm
          -14 86 -86 490 -285 113 hintmask 01101000
          hintmask 10110100
          -45 callsubr
          endchar
        </CharString>
        <CharString name="nine">
          216 73 358 -20 hstem
          102 101 vstem
          554 493 rmoveto
          17 10 40 20 23 vvcurveto
          23 -59 77 -39 1 vhcurveto
          -173 3 -238 -159 -123 vvcurveto
          -84 90 -68 34 49 112 70 29 41 vhcurveto
          2 -2 -189 -225 -35 2 -5 -19 -17 -27 rlinecurve
          -6 -10 -20 -28 -13 vvcurveto
          -13 10 -6 12 1 vhcurveto
          41 4 34 21 59 69 263 309 rcurveline
          10 11 23 27 16 vvcurveto
          16 -42 9 -12 -21 -35 -30 -12 -15 vhcurveto
          -49 -58 -131 -77 -77 hhcurveto
          -12 -4 5 11 64 81 93 240 61 hvcurveto
          53 callsubr
          -57 -48 5 -2 -2 vvcurveto
          -6 5 -6 6 13 8 6 7 11 vhcurveto
          37 23 rlineto
          endchar
        </CharString>
        <CharString name="notequal">
          245 134 58 135 59 hstem
          140 456 vstem
          490 476 rmoveto
          -47 21 -51 -111 rlineto
          -252 -59 228 hlineto
          -61 -135 rlineto
          -167 -58 142 hlineto
          -43 -93 47 -21 52 114 rlineto
          258 58 -234 hlineto
          63 135 rlineto
          171 59 -147 hlineto
          endchar
        </CharString>
        <CharString name="ntilde">
          66 callsubr
          57 88 hstemhm
          -14 86 -86 490 -303 224 -206 113 hintmask 01110100
          hintmask 10111001
          -45 callsubr
          hintmask 01110010
          -197 350 -94 callsubr
        </CharString>
        <CharString name="numbersign">
          164 21 -21 188 63 139 63 hstem
          53 552 vstem
          133 hmoveto
          79 188 rlineto
          122 hlineto
          -79 -188 rlineto
          64 hlineto
          80 188 rlineto
          111 hlineto
          16 63 rlineto
          -101 hlineto
          59 139 rlineto
          105 hlineto
          16 63 rlineto
          -95 hlineto
          78 185 rlineto
          -65 hlineto
          -78 -185 rlineto
          -122 hlineto
          79 185 rlineto
          -64 hlineto
          -79 -185 rlineto
          -112 hlineto
          -16 -63 rlineto
          103 hlineto
          -59 -139 rlineto
          -107 hlineto
          -15 -63 rlineto
          95 hlineto
          -79 -188 rlineto
          169 251 rmoveto
          60 139 rlineto
          122 hlineto
          -60 -139 rlineto
          endchar
        </CharString>
        <CharString name="o">
          -41 callsubr
          endchar
        </CharString>
        <CharString name="o.superior">
          -60 callsubr
        </CharString>
        <CharString name="oacute">
          41 callsubr
          77 88 -98 callsubr
          71 230 -107 callsubr
        </CharString>
        <CharString name="ocircumflex">
          41 callsubr
          109 60 -98 callsubr
          -10 181 -106 callsubr
        </CharString>
        <CharString name="odieresis">
          -41 callsubr
          -42 176 -105 callsubr
        </CharString>
        <CharString name="oe">
          167 -19 64 -61 88 307 -20 hstemhm
          -11 73 136 101 155 88 hintmask 01111100
          309 194 42 callsubr
          262 -7 rmoveto
          16 callsubr
          -32 13 38 hvcurveto
          2 22 rlineto
          194 63 47 74 49 vvcurveto
          40 -38 8 -32 -54 -54 -21 -32 -43 vhcurveto
          31 -12 -14 12 -35 hhcurveto
          -59 -77 -31 -34 -48 hvcurveto
          -52 -37 -35 -48 -66 vvcurveto
          hintmask 10111100
          -57 23 -115 76 29 28 14 15 25 vhcurveto
          hintmask 01111100
          24 15 -6 -3 23 28 rrcurveto
          -42 22 25 -24 52 -13 callsubr
          -336 86 rmoveto
          5 -9 2 -9 -1 -10 rrcurveto
          hintmask 10111100
          -28 -38 -15 -45 -48 vvcurveto
          -19 -32 -6 -5 -10 -5 rrcurveto
          -8 -13 -36 -19 -16 hhcurveto
          -24 -12 48 19 hvcurveto
          hintmask 01111100
          93 99 42 74 26 vhcurveto
          endchar
        </CharString>
        <CharString name="ogonek">
          -59 -130 32 112 -21 hstem
          196 71 vstem
          336 -7 rmoveto
          2 -55 vlineto
          -34 -10 -51 -12 -43 vvcurveto
          -44 45 -16 37 31 30 7 13 29 vhcurveto
          8 3 19 7 11 vvcurveto
          4 -2 4 -5 vhcurveto
          -9 -32 -17 -33 hhcurveto
          -24 -23 8 28 29 30 12 22 8 hvcurveto
          17 6 rlineto
          endchar
        </CharString>
        <CharString name="ograve">
          41 callsubr
          80 84 -98 callsubr
          -92 247 -102 callsubr
        </CharString>
        <CharString name="one">
          644 -20 hstem
          151 113 vstem
          402 529 24 callsubr
          -29 -38 -81 -107 -73 -121 rlinecurve
          -27 -45 -43 -111 -50 vvcurveto
          -52 43 -7 38 -21 vhcurveto
          -3 5 11 -6 5 hhcurveto
          9 5 5 9 hvcurveto
          12 -3 11 12 vvcurveto
          67 82 141 35 59 vhcurveto
          157 267 0 -3 29 vvcurveto
          15 -20 54 -26 -28 -113 -67 -19 -33 vhcurveto
          -24 -14 -20 -9 -2 -29 rrcurveto
          -6 -1 -2 -17 11 hhcurveto
          4 19 8 2 4 hvcurveto
          95 36 rlineto
          endchar
        </CharString>
        <CharString name="one.superior">
          -34 callsubr
        </CharString>
        <CharString name="onehalf">
          435 0 62 -51 -21 334 64 188 68 0 -20 24 -20 hstemhm
          712 90 hintmask 10100110
          hintmask 01100110
          159 -10 33 callsubr
          148 271 rmoveto
          hintmask 10101010
          95 383 rlineto
          -72 hlineto
          hintmask 10110010
          50 callsubr
          284 -261 rmoveto
          293 hlineto
          16 62 rlineto
          -185 hlineto
          1 2 42 26 98 65 71 46 19 74 rlinecurve
          63 16 -38 50 -90 hhcurveto
          -58 -56 -21 -20 -36 hvcurveto
          10 -53 rlineto
          14 24 43 16 36 hhcurveto
          60 8 -35 -26 -6 hvcurveto
          -11 -42 -48 -39 -110 -75 -87 -60 rcurveline
          endchar
        </CharString>
        <CharString name="onequarter">
          394 72 callsubr
          166 73 0 -20 210 68 0 -20 24 -20 hstemhm
          94 652 hintmask 1000100110000000
          646 hmoveto
          hintmask 0010100110000000
          23 93 rlineto
          64 hlineto
          hintmask 1000100110000000
          13 54 rlineto
          -64 hlineto
          60 239 rlineto
          -81 hlineto
          hintmask 0010100110000000
          -260 -249 -11 -44 rlineto
          202 hlineto
          hintmask 1001000110000000
          -23 54 callsubr
          117 13 13 16 17 16 18 rlinecurve
          3 -1 -7 -18 -6 -20 -5 -21 rlinecurve
          hintmask 0100100110000000
          -473 -263 33 callsubr
          148 271 rmoveto
          hintmask 1000101010000000
          95 383 rlineto
          -72 hlineto
          hintmask 1000110010000000
          50 callsubr
          endchar
        </CharString>
        <CharString name="onesuperior">
          -34 callsubr
        </CharString>
        <CharString name="ordfeminine">
          -57 callsubr
        </CharString>
        <CharString name="ordmasculine">
          -60 callsubr
        </CharString>
        <CharString name="oslash">
          -3 379 -20 75 callsubr
          vstem
          278 378 rmoveto
          1 -4 -4 0 -4 hhcurveto
          -19 callsubr
          3 -57 19 -42 28 -23 -6 -11 rcurveline
          -31 -57 1 -33 38 -14 18 4 6 12 2 20 28 58 rcurveline
          62 1 48 31 42 43 rrcurveto
          2 callsubr
          -31 -23 -28 -38 -44 8 rlinecurve
          19 39 20 35 44 vvcurveto
          29 -6 21 -27 8 vhcurveto
          99 113 -36 4 -34 16 -8 -12 -14 -22 rlinecurve
          -30 -36 rlineto
          -64 -108 -73 callsubr
          endchar
        </CharString>
        <CharString name="otilde">
          41 callsubr
          51 88 75 callsubr
          79 224 -101 callsubr
          -35 228 -94 callsubr
        </CharString>
        <CharString name="p">
          89 -3 88 -74 -4 callsubr
          -152 -86 rmoveto
          23 callsubr
          -107 -92 -20 -16 -86 6 rlinecurve
          44 callsubr
          20 45 31 37 34 36 rlinecurve
          16 17 52 48 22 vvcurveto
          19 -32 5 -14 -38 -18 -29 -26 -24 vhcurveto
          -265 -285 4 -47 17 callsubr
          hintmask 01100000
          94 184 rlineto
          endchar
        </CharString>
        <CharString name="paragraph">
          258 600 64 hstem
          374 67 72 68 vstem
          441 -48 rmoveto
          648 72 -648 68 703 vlineto
          5 -25 -42 4 -57 hhcurveto
          -211 -76 -92 -126 hvcurveto
          -134 -1 101 -56 92 hhcurveto
          12 -304 hlineto
          endchar
        </CharString>
        <CharString name="parenleft">
          -73 -159 113 752 -20 hstem
          49 113 vstem
          143 406 rmoveto
          -50 -111 -44 -129 -123 vvcurveto
          -56 3 -146 80 37 26 38 35 8 -3 32 -12 -3 -5 -1 -1 -2 vhcurveto
          -4 29 -4 29 29 vvcurveto
          174 113 266 100 141 vhcurveto
          8 11 14 23 14 vvcurveto
          23 -12 15 -24 -77 -112 -234 -66 -29 vhcurveto
          endchar
        </CharString>
        <CharString name="parenright">
          -73 706 -20 hstem
          252 113 vstem
          271 141 rmoveto
          50 111 44 129 123 vvcurveto
          56 -3 146 -80 -37 -26 -38 -35 -8 3 -32 12 3 5 1 1 2 vhcurveto
          4 -29 4 -29 -29 vvcurveto
          -174 -113 -266 -100 -141 vhcurveto
          -8 -11 -14 -23 -14 vvcurveto
          -23 12 -15 24 77 112 234 66 29 vhcurveto
          endchar
        </CharString>
        <CharString name="partialdiff">
          161 -10 79 296 76 196 79 hstem
          50 100 340 97 vstem
          216 593 rmoveto
          20 31 50 24 64 hhcurveto
          103 51 -105 -143 -36 hvcurveto
          -2 -10 -5 -17 -3 -10 rrcurveto
          -1 hlineto
          27 -9 -40 62 -90 hhcurveto
          -118 -119 -93 -142 -35 hvcurveto
          -96 -24 33 -120 138 hhcurveto
          175 139 165 211 52 hvcurveto
          228 57 -93 122 -142 hhcurveto
          -89 -65 -31 -23 -36 hvcurveto
          32 -593 rmoveto
          -68 -30 60 77 19 hvcurveto
          87 22 77 72 75 hhcurveto
          72 33 -60 -35 3 hvcurveto
          -99 -37 -80 -102 -85 hhcurveto
          endchar
        </CharString>
        <CharString name="percent">
          244 -7 84 -63 -21 263 33 60 84 179 33 48 -20 hstemhm
          87 73 158 50 -1 73 158 50 hintmask 0111111011000000
          hintmask 0111111101000000
          317 645 13 callsubr
          12 callsubr
          353 -311 13 callsubr
          hintmask 1011111011000000
          12 callsubr
          -319 -40 rmoveto
          -33 -40 -70 -87 -51 vvcurveto
          -26 22 -34 28 20 5 19 15 5 vhcurveto
          8 21 15 20 12 19 81 129 131 163 105 110 115 121 9 33 -11 49 -91 -60 -79 -74 -69 -83 -203 -244 rcurveline
          endchar
        </CharString>
        <CharString name="period">
          -98 16 -21 hstem
          55 150 vstem
          118 -5 -47 callsubr
        </CharString>
        <CharString name="periodcentered">
          4 callsubr
        </CharString>
        <CharString name="perthousand">
          809 -7 58 -40 -21 265 58 15 58 205 58 hstemhm
          97 80 189 80 31 79 190 79 32 79 190 79 hintmask 1001111111100000
          hintmask 0010111000000000
          324 649 rmoveto
          -94 -94 -78 -123 -31 hvcurveto
          -123 -30 62 -70 84 hhcurveto
          88 96 74 130 32 hvcurveto
          122 31 -56 68 -87 hhcurveto
          -18 -58 rmoveto
          60 11 -57 -81 -21 hvcurveto
          -90 -22 -46 -50 -51 hhcurveto
          -53 -21 54 85 21 hvcurveto
          78 19 46 61 56 hhcurveto
          hintmask 1001000001100000
          777 -205 rmoveto
          -94 -93 -77 -124 -31 8 callsubr
          53 85 21 hvcurveto
          78 20 45 61 55 hhcurveto
          hintmask 1001000110000000
          -361 58 rmoveto
          -94 -94 -78 -123 -30 8 callsubr
          54 84 21 hvcurveto
          78 20 45 61 56 hhcurveto
          hintmask 0100110000000000
          -473 -338 rmoveto
          546 658 rlineto
          -61 hlineto
          -545 -658 rlineto
          endchar
        </CharString>
        <CharString name="pi">
          189 21 -21 396 81 hstem
          26 632 vstem
          629 396 rmoveto
          29 81 rlineto
          -412 hlineto
          -83 -49 -11 -17 -29 hvcurveto
          -3 -64 rlineto
          8 24 30 3 55 hhcurveto
          -31 -112 -75 -185 -59 -99 rrcurveto
          98 hlineto
          56 84 78 201 33 111 rrcurveto
          161 hlineto
          -65 -262 -18 -73 -5 -44 6 -17 rlinecurve
          98 hlineto
          -1 27 4 40 19 75 63 254 rcurveline
          endchar
        </CharString>
        <CharString name="plus">
          243 230 60 hstem
          335 63 vstem
          594 230 rmoveto
          60 -196 201 -63 -201 -197 -60 197 -219 63 219 vlineto
          endchar
        </CharString>
        <CharString name="plusminus">
          259 -3 58 247 60 hstem
          350 62 vstem
          608 302 rmoveto
          60 -196 190 -62 -190 -197 -60 197 -200 62 200 vlineto
          197 -305 rmoveto
          58 -455 -58 vlineto
          endchar
        </CharString>
        <CharString name="product">
          437 552 86 hstem
          258 97 251 97 vstem
          812 552 rmoveto
          86 -662 -86 108 -640 97 640 251 -640 97 640 vlineto
          endchar
        </CharString>
        <CharString name="q">
          53 10 88 199 81 -59 59 0 -20 hstemhm
          -16 73 hintmask 10011000
          230 12 rmoveto
          -2 20 -7 0 24 hhcurveto
          1 -7 1 -7 -7 vvcurveto
          -56 -94 -81 -55 -23 vhcurveto
          9 34 17 32 20 28 64 89 rcurveline
          217 170 rmoveto
          -89 -70 -34 -24 -33 13 rrcurveto
          hintmask 10101000
          24 40 97 97 45 vvcurveto
          15 -9 16 -15 5 vhcurveto
          6 6 10 10 9 vvcurveto
          7 -6 13 -5 5 vhcurveto
          10 -10 -12 -1 -13 hhcurveto
          -102 -127 -57 -64 -70 hvcurveto
          -45 -41 -30 -37 -62 vvcurveto
          -63 49 -45 28 56 124 131 36 43 vhcurveto
          2 -2 -75 -102 -85 -100 -64 -104 rlinecurve
          -13 -22 -19 -21 -27 vvcurveto
          -22 15 -45 26 24 93 61 59 57 vhcurveto
          46 48 59 72 -8 70 117 103 rcurveline
          hintmask 10011000
          -12 38 rlineto
          hintmask 11001000
          -109 114 rmoveto
          -121 -143 -106 -59 -54 3 4 55 14 20 45 31 66 45 76 29 75 20 1 -1 rcurveline
          endchar
        </CharString>
        <CharString name="question">
          68 -11 170 -149 -21 595 101 hstemhm
          120 120 -42 73 176 50 hintmask 01110100
          224 547 rmoveto
          20 53 42 17 58 hhcurveto
          31 39 -1 -42 -33 -39 -29 -23 -21 hvcurveto
          hintmask 01101100
          -115 -106 rlineto
          -34 -32 -38 -43 -49 vvcurveto
          -29 24 -43 33 14 8 9 14 vhcurveto
          9 -6 9 9 vvcurveto
          21 13 8 13 16 vhcurveto
          130 154 rlineto
          44 52 26 53 69 vvcurveto
          82 -47 24 -75 -51 -132 -21 -47 -28 vhcurveto
          -10 -17 -16 -44 -20 vvcurveto
          -29 28 4 20 -1 vhcurveto
          39 -6 rlineto
          -1 5 8 -2 5 hhcurveto
          10 11 6 12 14 -19 6 -11 4 hvcurveto
          hintmask 01110100
          -10 4 rlineto
          -50 -558 rmoveto
          46 20 71 35 hvcurveto
          hintmask 10110100
          68 callsubr
          hintmask 01110100
          -26 28 -22 26 vhcurveto
          endchar
        </CharString>
        <CharString name="questiondown">
          68 -269 101 hstemhm
          -7 50 176 73 -41 120 hintmask 11010000
          266 -131 rmoveto
          -20 -53 -42 -17 -58 hhcurveto
          -31 -39 1 42 33 39 29 23 21 hvcurveto
          hintmask 11100000
          115 106 rlineto
          34 32 38 43 49 vvcurveto
          29 -24 43 -33 -14 -8 -9 -14 vhcurveto
          -9 6 -9 -9 vvcurveto
          -21 -13 -8 -13 -16 vhcurveto
          -130 -154 rlineto
          -44 -52 -26 -53 -69 vvcurveto
          -82 47 -24 75 51 132 21 47 28 vhcurveto
          10 17 16 44 20 vvcurveto
          29 -28 -4 -20 1 vhcurveto
          -39 6 rlineto
          1 -5 -8 2 -5 hhcurveto
          -10 -11 -6 -12 -14 19 -6 11 -4 hvcurveto
          hintmask 11010000
          10 -4 rlineto
          51 559 45 callsubr
          endchar
        </CharString>
        <CharString name="quotedbl">
          -66 396 316 hstem
          38 86 85 86 vstem
          81 712 rmoveto
          -23 callsubr
          171 hmoveto
          -23 callsubr
          endchar
        </CharString>
        <CharString name="quotedblbase">
          71 -60 200 hstem
          49 319 vstem
          56 -31 callsubr
          169 hmoveto
          -77 callsubr
          endchar
        </CharString>
        <CharString name="quotedblleft">
          71 689 -20 hstem
          156 319 vstem
          468 586 rmoveto
          -21 callsubr
          -169 hmoveto
          -21 callsubr
          endchar
        </CharString>
        <CharString name="quotedblright">
          71 685 -20 hstem
          123 319 vstem
          130 588 rmoveto
          -77 callsubr
          169 hmoveto
          -77 callsubr
          endchar
        </CharString>
        <CharString name="quoteleft">
          -98 689 -20 hstem
          107 150 vstem
          250 586 rmoveto
          -21 callsubr
          endchar
        </CharString>
        <CharString name="quoteright">
          -98 685 -20 hstem
          175 150 vstem
          182 588 rmoveto
          -77 callsubr
          endchar
        </CharString>
        <CharString name="quotesinglbase">
          -9 callsubr
        </CharString>
        <CharString name="quotesingle">
          -177 396 316 hstem
          68 86 vstem
          111 712 rmoveto
          -23 callsubr
          endchar
        </CharString>
        <CharString name="r">
          -51 -8 101 -80 -21 393 -20 hstemhm
          84 101 hintmask 01110000
          174 240 rmoveto
          53 callsubr
          -40 -48 -52 -53 -68 vvcurveto
          -38 26 -39 42 57 115 111 43 38 vhcurveto
          hintmask 10110000
          -7 37 rlineto
          -25 -33 -63 -65 -43 hhcurveto
          -15 -16 12 16 40 49 49 29 25 hvcurveto
          23 19 19 15 31 vvcurveto
          -2 18 -7 16 -15 19 -10 12 -55 -12 -94 -13 rrcurveto
          4 9 3 9 10 vvcurveto
          9 -8 8 -10 -24 -102 -72 -72 -21 6 -8 21 -2 vhcurveto
          -19 -27 -21 -25 -26 -21 4 -44 rcurveline
          43 43 42 26 35 55 rrcurveto
          hintmask 01110000
          104 23 rlineto
          endchar
        </CharString>
        <CharString name="radical">
          306 -134 895 hstem
          161 554 vstem
          715 761 rmoveto
          -72 hlineto
          -179 -720 -5 -26 -6 -27 -3 -19 rlinecurve
          -1 1 -5 20 -8 24 -6 24 rlinecurve
          -119 326 -150 -60 18 -54 73 28 156 -412 rlineto
          82 hlineto
          endchar
        </CharString>
        <CharString name="registered">
          471 -20 94 261 64 84 64 85 94 hstem
          62 94 125 88 147 88 110 7 callsubr
          -652 vmoveto
          -150 -129 130 149 74 callsubr
          129 150 74 callsubr
          -129 -150 -149 -129 -130 -150 hvcurveto
          77 261 rmoveto
          57 5 35 27 68 vvcurveto
          39 -10 36 -34 21 vhcurveto
          17 -27 -41 -1 -32 hhcurveto
          -179 -367 88 155 48 hlineto
          75 -155 rlineto
          101 hlineto
          -81 155 rlineto
          -143 64 rmoveto
          84 73 vlineto
          29 45 0 -39 -38 -25 -7 -34 hvcurveto
          -88 hlineto
          endchar
        </CharString>
        <CharString name="ring">
          -105 404 33 hstem
          216 50 49 62 vstem
          331 566 -36 callsubr
        </CharString>
        <CharString name="s">
          -40 7 -21 -37 callsubr
          endchar
        </CharString>
        <CharString name="scaron">
          -40 7 -21 428 60 -37 callsubr
          -3 365 -86 callsubr
        </CharString>
        <CharString name="section">
          151 -62 68 -6 -21 623 69 hstemhm
          49 528 -476 360 -269 350 hintmask 01110000
          577 639 rmoveto
          19 -34 -48 13 -61 hhcurveto
          hintmask 01100100
          -113 -102 -48 -97 -24 hvcurveto
          -8 -32 9 -33 19 -20 -63 -25 -37 -48 -10 -40 rrcurveto
          hintmask 10101000
          -22 -86 60 -37 105 -32 88 -27 36 -20 -12 -45 rrcurveto
          -53 -13 -68 -22 -56 hhcurveto
          -61 -52 22 16 -22 hvcurveto
          hintmask 01110000
          -39 -65 rlineto
          hintmask 10101000
          -29 38 57 -12 67 hhcurveto
          92 127 39 111 28 hvcurveto
          8 30 -7 37 -22 19 53 32 36 38 12 47 rrcurveto
          hintmask 01100100
          20 82 -52 40 -98 33 -91 29 -37 18 10 41 rrcurveto
          42 10 55 26 66 hhcurveto
          53 44 -14 -15 24 hvcurveto
          -348 -230 rmoveto
          8 31 27 19 30 14 30 -14 43 -15 37 -12 64 -21 27 -25 -11 -43 -7 -27 -23 -25 -26 -14 -19 12 -35 15 -51 16 -77 25 -27 22 10 41 rrcurveto
          endchar
        </CharString>
        <CharString name="semicolon">
          -98 382 -20 hstem
          48 270 vstem
          55 -31 callsubr
          176 190 -47 callsubr
        </CharString>
        <CharString name="seven">
          514 133 hstem
          124 496 vstem
          267 292 rmoveto
          -49 -62 -93 -118 -80 vvcurveto
          -34 13 -31 38 2 vhcurveto
          42 2 105 70 -2 15 rrcurveto
          7 -1 -4 3 -6 hhcurveto
          -8 -8 -2 -3 -8 hvcurveto
          50 193 106 128 128 109 rrcurveto
          15 12 35 25 22 vvcurveto
          18 -15 46 -10 15 vhcurveto
          17 -12 -25 1 -18 hhcurveto
          -245 -65 -25 -31 -30 hvcurveto
          -16 -17 -60 -73 -22 vvcurveto
          -12 15 -10 11 11 13 10 4 8 vhcurveto
          43 22 21 27 233 -6 -212 -222 rcurveline
          endchar
        </CharString>
        <CharString name="six">
          8 -21 369 73 -40 -20 277 -20 hstemhm
          74 113 242 101 hintmask 10111100
          418 508 rmoveto
          40 35 69 47 48 22 rrcurveto
          7 3 14 8 10 vvcurveto
          18 -71 -5 -9 -55 -10 -5 -30 -49 vhcurveto
          -137 -84 -191 -161 -175 vvcurveto
          -126 119 -78 55 68 214 147 162 vhcurveto
          hintmask 11011100
          71 -46 62 -74 vhcurveto
          hintmask 10111100
          -46 -41 -24 -18 -40 hvcurveto
          -2 2 137 119 rlineto
          hintmask 11011100
          -18 -152 rmoveto
          27 2 -17 -21 hvcurveto
          -3 -121 -142 -97 -72 -12 rrcurveto
          -25 -4 0 51 16 vvcurveto
          58 15 12 43 38 vhcurveto
          28 32 80 69 43 hhcurveto
          endchar
        </CharString>
        <CharString name="slash">
          63 -93 861 hstem
          34 497 vstem
          495 628 rmoveto
          15 25 21 30 30 vvcurveto
          19 -4 18 -5 18 vhcurveto
          -61 -50 -89 -98 -105 -176 rrcurveto
          -78 -130 -155 -253 -86 vvcurveto
          -36 27 -32 38 11 5 13 9 3 vhcurveto
          42 126 26 70 111 181 198 322 rcurveline
          endchar
        </CharString>
        <CharString name="space">
          -59 endchar
        </CharString>
        <CharString name="sterling">
          201 14 -21 275 48 hstem
          567 133 vstem
          -40 153 rmoveto
          -21 -29 -66 -74 -34 vvcurveto
          -16 17 -7 14 28 52 30 12 26 vhcurveto
          129 3 126 -31 124 -29 rrcurveto
          -4 19 22 -4 19 hhcurveto
          66 40 76 40 43 hvcurveto
          -139 27 -133 55 -142 9 67 77 rcurveline
          60 -12 rlineto
          -2 12 17 -6 12 hhcurveto
          13 11 7 14 31 -60 13 -24 3 hvcurveto
          82 98 75 101 88 95 rrcurveto
          5 6 10 11 8 hhcurveto
          4 19 1 -77 -63 hvcurveto
          -36 -43 -62 -101 -56 vvcurveto
          -16 4 -22 20 15 20 17 8 11 vhcurveto
          20 15 81 53 27 vvcurveto
          12 -9 1 -10 3 vhcurveto
          36 69 89 117 77 vvcurveto
          29 -25 33 -34 4 vhcurveto
          -28 3 -63 -25 -80 -101 -210 -265 rcurveline
          -46 -61 -62 4 -59 4 -11 -14 -29 -47 rlinecurve
          39 7 42 5 40 -9 -73 -90 rcurveline
          -141 -21 rlineto
          endchar
        </CharString>
        <CharString name="summation">
          284 -88 88 556 82 hstemhm
          148 516 -505 137 hintmask 11100000
          664 -88 rmoveto
          88 -387 2 vlineto
          239 285 rlineto
          hintmask 11010000
          -220 265 rlineto
          4 352 82 -489 -66 vlineto
          244 -298 -255 -302 rlineto
          -60 vlineto
          endchar
        </CharString>
        <CharString name="t">
          -107 -30 101 hstemhm
          -55 402 -364 108 hintmask 11000000
          285 422 rmoveto
          10 14 29 33 18 vvcurveto
          16 -19 3 -13 -58 -22 -47 -41 -30 vhcurveto
          -107 -4 -8 -16 -54 -88 -11 -18 rcurveline
          8 53 -19 -4 61 hhcurveto
          hintmask 10100000
          -37 -63 -55 -51 -60 -46 11 -38 rcurveline
          51 41 53 callsubr
          -13 -29 -13 -38 -33 vvcurveto
          -40 24 -27 39 85 108 107 54 59 vhcurveto
          -5 44 rlineto
          -74 -104 -36 -30 -32 hhcurveto
          -23 -7 13 22 60 57 82 34 44 hvcurveto
          110 -7 8 37 47 95 rrcurveto
          hintmask 11000000
          -62 5 rlineto
          endchar
        </CharString>
        <CharString name="thorn">
          89 -3 87 -73 -4 callsubr
          -257 -1 rmoveto
          17 callsubr
          94 184 rlineto
          23 callsubr
          rlineto
          -78 -89 -34 -25 -61 -9 -9 1 -11 hhcurveto
          44 callsubr
          14 31 30 41 42 49 rlinecurve
          144 165 rlineto
          44 51 5 4 6 vvcurveto
          18 -36 9 -12 -16 -19 -4 -27 -23 vhcurveto
          -47 -54 -92 -108 -74 -79 -198 -213 rcurveline
          hintmask 01100000
          4 -47 rlineto
          endchar
        </CharString>
        <CharString name="three">
          -10 113 179 58 131 38 46 88 hstem
          442 73 50 73 vstem
          247 511 rmoveto
          2 vlineto
          26 69 72 16 74 hhcurveto
          28 75 2 -43 -68 -277 -47 -56 -4 hvcurveto
          -74 -5 -26 -37 -9 -62 rrcurveto
          -12 -2 4 -9 13 hhcurveto
          8 13 2 2 8 hvcurveto
          6 33 22 2 34 hhcurveto
          37 148 -4 -55 1 hvcurveto
          -35 -150 -85 -147 -36 -28 10 13 -33 vhcurveto
          8 8 15 18 4 vvcurveto
          8 -8 4 -7 -25 -62 -72 -25 -28 45 -53 135 255 116 150 67 -5 vhcurveto
          -8 110 -120 9 -79 14 rrcurveto
          2 vlineto
          151 33 39 8 46 12 34 21 rlinecurve
          32 21 28 44 37 vvcurveto
          116 -113 9 -90 -65 -70 -6 -24 -61 vhcurveto
          -39 -15 -57 -23 -50 vvcurveto
          -33 19 -21 32 23 47 2 5 23 vhcurveto
          6 1 12 3 8 vvcurveto
          12 -31 4 -6 1 vhcurveto
          -21 4 rlineto
          endchar
        </CharString>
        <CharString name="three.superior">
          -69 callsubr
        </CharString>
        <CharString name="threequarters">
          470 72 callsubr
          109 58 -1 73 0 -20 72 51 103 57 hstemhm
          344 88 hintmask 1001011110000000
          722 hmoveto
          hintmask 0011011110000000
          23 93 rlineto
          64 hlineto
          hintmask 1001011110000000
          13 54 rlineto
          -63 hlineto
          59 239 rlineto
          -81 hlineto
          hintmask 0011011110000000
          -259 -249 -11 -44 rlineto
          203 hlineto
          hintmask 1000101110000000
          -24 54 callsubr
          116 13 14 16 17 17 18 rlinecurve
          2 -1 -6 -18 -6 -20 -5 -21 rlinecurve
          hintmask 0101011110000000
          -474 -263 33 callsubr
          9 576 rmoveto
          10 19 42 16 37 hhcurveto
          57 14 -25 -23 -5 hvcurveto
          -32 -8 -53 -23 -58 hhcurveto
          -33 hlineto
          -12 -51 rlineto
          32 hlineto
          71 42 -24 -39 -9 hvcurveto
          -35 -9 -45 -26 -62 hhcurveto
          -42 -40 14 10 -15 hvcurveto
          -32 -56 rlineto
          -14 22 49 -12 55 hhcurveto
          112 76 52 63 15 hvcurveto
          12 47 -32 38 -58 8 1 2 rcurveline
          53 15 43 32 10 42 rrcurveto
          52 13 -35 42 -94 hhcurveto
          -56 -52 -15 -15 -30 hvcurveto
          endchar
        </CharString>
        <CharString name="threesuperior">
          -69 callsubr
        </CharString>
        <CharString name="tilde">
          -59 410 88 hstem
          113 224 vstem
          151 498 -94 callsubr
        </CharString>
        <CharString name="trademark">
          333 611 73 hstem
          163 88 131 88 200 88 vstem
          345 684 rmoveto
          -274 -73 92 -251 88 251 94 73 hlineto
          169 hmoveto
          -132 -324 88 229 2 hlineto
          78 -229 rlineto
          41 hlineto
          77 229 rlineto
          2 -229 88 324 -131 hlineto
          -55 -160 rlineto
          -2 hlineto
          -56 160 rlineto
          endchar
        </CharString>
        <CharString name="two">
          -14 118 -97 -21 560 101 hstemhm
          139 190 211 73 hintmask 01111000
          304 404 rmoveto
          11 1 14 3 14 vvcurveto
          19 -25 0 -13 2 vhcurveto
          -59 7 rlineto
          2 vlineto
          35 74 113 59 83 hhcurveto
          14 24 -6 -20 -55 -99 -53 -42 -23 hvcurveto
          -76 -42 -285 -146 -91 vvcurveto
          -36 14 -52 30 -24 vhcurveto
          26 -20 116 5 156 29 rrcurveto
          hintmask 10111000
          89 17 18 69 26 74 -389 -68 rcurveline
          -2 2 75 59 85 47 85 45 rlinecurve
          246 131 0 47 54 vvcurveto
          138 -37 20 -75 -86 -162 -31 -66 -58 vhcurveto
          -25 -28 -31 -68 -37 vvcurveto
          -14 4 -25 19 6 21 4 1 7 vhcurveto
          hintmask 01111000
          108 21 rlineto
          endchar
        </CharString>
        <CharString name="two.superior">
          -48 callsubr
        </CharString>
        <CharString name="twosuperior">
          -48 callsubr
        </CharString>
        <CharString name="u">
          -52 callsubr
          endchar
        </CharString>
        <CharString name="uacute">
          21 callsubr
          76 88 -87 callsubr
          141 323 -107 callsubr
        </CharString>
        <CharString name="ucircumflex">
          21 callsubr
          108 60 -87 callsubr
          60 274 -106 callsubr
        </CharString>
        <CharString name="udieresis">
          -52 callsubr
          28 269 -105 callsubr
        </CharString>
        <CharString name="ugrave">
          21 callsubr
          79 84 -87 callsubr
          -22 340 -102 callsubr
        </CharString>
        <CharString name="underscore">
          101 -125 50 hstem
          0 500 vstem
          -75 vmoveto
          -50 500 50 -500 vlineto
          endchar
        </CharString>
        <CharString name="uni00A0">
          -59 endchar
        </CharString>
        <CharString name="uni00AD">
          10 callsubr
        </CharString>
        <CharString name="uni02C9">
          -3 callsubr
        </CharString>
        <CharString name="uni03A9">
          -38 callsubr
        </CharString>
        <CharString name="uni03BC">
          -66 callsubr
        </CharString>
        <CharString name="uni2010">
          10 callsubr
        </CharString>
        <CharString name="uni2206">
          257 0 78 480 97 hstem
          -4 615 vstem
          -4 hmoveto
          600 hlineto
          15 60 -91 595 rlineto
          -118 hlineto
          -392 -596 rlineto
          108 19 rmoveto
          219 329 28 48 48 72 17 31 rlinecurve
          4 hlineto
          2 -40 13 -79 5 -47 51 -314 rcurveline
          endchar
        </CharString>
        <CharString name="uni2215">
          19 callsubr
        </CharString>
        <CharString name="uni2219">
          4 callsubr
        </CharString>
        <CharString name="v">
          26 -9 88 6 73 215 -20 23 -20 hstemhm
          -9 73 hintmask 10011000
          hintmask 10101000
          267 290 rmoveto
          -27 -34 -27 -38 4 -46 rrcurveto
          -20 -21 -79 -73 -29 hhcurveto
          -20 -4 23 16 16 10 27 5 16 hvcurveto
          hintmask 10011000
          36 30 94 101 45 vvcurveto
          21 -46 2 -14 -35 -123 -96 -138 -76 40 -75 59 39 101 88 32 28 vhcurveto
          hintmask 01101000
          -12 17 14 -14 21 hhcurveto
          56 37 31 40 35 hvcurveto
          -7 42 rlineto
          -15 -22 -37 -25 -26 hhcurveto
          -16 -7 3 10 -11 hvcurveto
          25 35 58 94 40 vvcurveto
          20 -10 13 -20 vhcurveto
          hintmask 10101000
          -35 -44 -58 -25 -19 hvcurveto
          endchar
        </CharString>
        <CharString name="w">
          236 -17 101 -85 88 -83 -21 37 -21 88 59 243 -20 hstemhm
          -10 88 170 73 hintmask 00011111
          hintmask 01000111
          187 161 rmoveto
          -14 -14 -68 -60 -16 hhcurveto
          -9 -2 14 8 21 5 30 3 6 hvcurveto
          41 32 129 108 51 vvcurveto
          16 -14 14 -45 2 vhcurveto
          -21 1 -18 -4 -85 -86 -50 -50 -31 -43 -2 -74 -2 -80 51 -51 56 -3 49 -3 67 90 37 33 rrcurveto
          hintmask 00101111
          -6 -95 13 -8 11 -14 rrcurveto
          -11 10 11 -8 15 hhcurveto
          55 78 92 32 43 hvcurveto
          -13 22 12 -7 26 hhcurveto
          46 34 29 31 30 hvcurveto
          -2 44 rlineto
          -15 -19 -35 -30 -25 hhcurveto
          -15 -7 6 8 -13 hvcurveto
          33 40 35 46 55 vvcurveto
          18 -8 32 -24 -29 -40 -49 -21 -16 vhcurveto
          hintmask 10000111
          -52 -67 1 -18 5 -38 rrcurveto
          -18 -21 -48 -56 -28 hhcurveto
          -12 -7 9 11 37 68 116 22 34 hvcurveto
          7 11 16 26 13 vvcurveto
          12 -38 9 -10 -14 -35 -45 -10 -8 vhcurveto
          hintmask 01000111
          -142 -146 rlineto
          endchar
        </CharString>
        <CharString name="x">
          -51 -16 113 -92 -21 408 -20 hstemhm
          106.5 87 hintmask 01110000
          262 255 rmoveto
          43 -9 50 81 -4 21 rrcurveto
          5 -1 -1 11 -11 hhcurveto
          -21 -21 -20 -14 -15 hvcurveto
          -89 -81 3 91 rlineto
          16 1 3 36 -24 hhcurveto
          -30 -146 -127 -20 -7 4 -5 7 -1 hvcurveto
          7 -1 15 10 74 38 1 -120 rcurveline
          -53 -47 -25 -7 -11 -7 -17 -20 rlinecurve
          -9 -11 -26 -34 -14 vvcurveto
          -9 7 -5 9 20 32 30 13 14 vhcurveto
          58 56 rlineto
          -38 -12 -82 58 68 91 112 43 50 vhcurveto
          hintmask 10110000
          -6 40 rlineto
          -24 -29 -59 -58 -39 hhcurveto
          -30 -7 22 25 1 hvcurveto
          1 42 rlineto
          hintmask 01110000
          69 69 rlineto
          endchar
        </CharString>
        <CharString name="y">
          -43 callsubr
          endchar
        </CharString>
        <CharString name="yacute">
          43 16 94 272 -20 74 88 -79 callsubr
          -157 335 -107 callsubr
        </CharString>
        <CharString name="ydieresis">
          -43 callsubr
          -270 281 -105 callsubr
        </CharString>
        <CharString name="yen">
          411 183 60 5 118 -81 60 300 -20 hstemhm
          41 918 hintmask 10111000
          691 337 rmoveto
          18 25 22 21 26 26 154 154 50 30 -2 18 -2 14 -28 23 -31 -3 -20 -2 -34 -22 -14 -8 rrcurveto
          hintmask 01011000
          -374 -217 123 75 -170 -91 rrcurveto
          -39 -21 -26 6 8 vvcurveto
          21 69 40 158 128 vhcurveto
          26 21 98 72 -2 30 -2 24 -45 7 -43 -4 -119 -10 -246 -89 -102 -41 -40 -16 -23 -11 -10 -25 -15 -37 rcurveline
          -8 -12 -1 -9 3 -5 4 -4 6 0 12 1 9 1 22 6 7 3 89 38 123 45 187 64 rrcurveto
          6 2 11 -3 -4 vvcurveto
          1 -17 -56 -38 -100 -74 -218 -162 16 -18 -4 -15 -6 -23 55 -15 41 4 51 4 77 44 36 20 317 175 rcurveline
          4 -1 -33 -26 -68 -53 -70 -89 rlinecurve
          -35 -6 -90 -15 -12 -16 -27 -54 rlinecurve
          36 11 42 12 41 6 -10 -13 -9 -13 -11 -15 -36 -7 rcurveline
          -89 -17 -13 -13 -26 -54 39 13 43 10 42 7 rrcurveto
          -50 -69 -34 -62 -28 vvcurveto
          -16 20 -19 28 vhcurveto
          46 -1 48 39 5 36 rrcurveto
          hintmask 10111000
          78 138 1 1 130 12 13 1 92 -4 -10 35 rlinecurve
          -12 30 -95 -7 -37 -4 -49 -5 rcurveline
          11 16 7 15 10 13 146 12 rcurveline
          13 1 92 -4 -10 35 -12 30 -95 -8 -37 -3 -54 -5 rcurveline
          endchar
        </CharString>
        <CharString name="z">
          56 callsubr
          hstemhm
          -69 50 hintmask 11011000
          35 callsubr
          hintmask 11101000
          47 callsubr
          hintmask 11011000
          -29 callsubr
          endchar
        </CharString>
        <CharString name="zcaron">
          56 callsubr
          51 60 hstemhm
          -69 50 hintmask 11011100
          35 callsubr
          hintmask 11101100
          47 callsubr
          hintmask 11011100
          -29 callsubr
          140 512 -86 callsubr
        </CharString>
        <CharString name="zero">
          -13 88 442 133 hstem
          45 113 375 73 vstem
          556 562 rmoveto
          7 7 24 0 11 vvcurveto
          22 -49 48 -41 -65 -153 -78 -97 -88 vhcurveto
          -74 -82 -72 -124 -113 vvcurveto
          -85 54 -91 92 7 vhcurveto
          241 17 174 262 192 vvcurveto
          40 -5 50 -45 14 vhcurveto
          -250 -428 rmoveto
          -21 -23 -64 -38 -30 hhcurveto
          -28 -4 58 19 1 hvcurveto
          6 103 79 142 180 101 rrcurveto
          -6 2 -12 8 vhcurveto
          10 26 37 26 hhcurveto
          28 10 -38 -21 -66 -85 -119 -44 -49 hvcurveto
          -98 -90 rlineto
          endchar
        </CharString>
</ttFont>
